<svg width="364" height="66" viewBox="0 0 364 66" fill="none" xmlns="http://www.w3.org/2000/svg">
<circle cx="32" cy="32" r="31.619" transform="matrix(-1 0 0 1 64 0)" stroke="url(#paint0_linear_2111_5)" stroke-width="0.761905"/>
<path d="M26.5992 44.4023C24.5208 44.4023 22.7328 43.8994 21.2354 42.8937C19.738 41.8657 18.587 40.4465 17.7825 38.6362C16.9779 36.8036 16.5756 34.6804 16.5756 32.2667C16.5756 29.853 16.9779 27.741 17.7825 25.9307C18.587 24.098 19.738 22.6789 21.2354 21.6731C22.7328 20.6451 24.5208 20.131 26.5992 20.131C28.6777 20.131 30.4545 20.6451 31.9295 21.6731C33.4269 22.6789 34.5667 24.098 35.349 25.9307C36.1535 27.741 36.5558 29.853 36.5558 32.2667C36.5558 34.6804 36.1535 36.8036 35.349 38.6362C34.5667 40.4465 33.4269 41.8657 31.9295 42.8937C30.4545 43.8994 28.6777 44.4023 26.5992 44.4023ZM26.5992 41.4187C27.8508 41.4187 28.9683 41.0499 29.9516 40.3124C30.9573 39.5749 31.7396 38.5244 32.2983 37.1611C32.857 35.7978 33.1364 34.1663 33.1364 32.2667C33.1364 30.367 32.857 28.7355 32.2983 27.3722C31.7396 26.0089 30.9573 24.9696 29.9516 24.2545C28.9683 23.5169 27.8508 23.1482 26.5992 23.1482C25.3253 23.1482 24.1855 23.5169 23.1798 24.2545C22.1741 24.9696 21.3919 26.0089 20.8331 27.3722C20.2744 28.7355 19.995 30.367 19.995 32.2667C19.995 34.1663 20.2744 35.7978 20.8331 37.1611C21.3919 38.5244 22.1741 39.5749 23.1798 40.3124C24.1855 41.0499 25.3253 41.4187 26.5992 41.4187ZM43.275 44V24.3215L39.1851 25.3608V22.8465L44.5154 20.5333H46.6944V44H43.275Z" fill="white"/>
<path d="M93.4443 25C93.4443 25 153.298 64.1619 227.891 65C302.484 65.8381 363.444 25 363.444 25" stroke="url(#paint1_linear_2111_5)"/>
<defs>
<linearGradient id="paint0_linear_2111_5" x1="94.0952" y1="-16" x2="-4.82744e-06" y2="43.0476" gradientUnits="userSpaceOnUse">
<stop stop-color="white"/>
<stop offset="1" stop-color="white" stop-opacity="0"/>
</linearGradient>
<linearGradient id="paint1_linear_2111_5" x1="93.4443" y1="45.0064" x2="363.444" y2="45.0064" gradientUnits="userSpaceOnUse">
<stop stop-color="#1D1E2D"/>
<stop offset="1" stop-color="#E0E0E2"/>
</linearGradient>
</defs>
</svg>
