<svg width="377" height="64" viewBox="0 0 377 64" fill="none" xmlns="http://www.w3.org/2000/svg">
<circle cx="32" cy="32" r="31.619" transform="matrix(-1 0 0 1 64.2222 0)" stroke="url(#paint0_linear_2111_4)" stroke-width="0.761905"/>
<path d="M22.5992 44.4023C20.5208 44.4023 18.7328 43.8994 17.2354 42.8937C15.738 41.8657 14.587 40.4465 13.7825 38.6362C12.9779 36.8036 12.5756 34.6804 12.5756 32.2667C12.5756 29.853 12.9779 27.741 13.7825 25.9307C14.587 24.098 15.738 22.6789 17.2354 21.6731C18.7328 20.6451 20.5208 20.131 22.5992 20.131C24.6777 20.131 26.4545 20.6451 27.9295 21.6731C29.4269 22.6789 30.5667 24.098 31.349 25.9307C32.1535 27.741 32.5558 29.853 32.5558 32.2667C32.5558 34.6804 32.1535 36.8036 31.349 38.6362C30.5667 40.4465 29.4269 41.8657 27.9295 42.8937C26.4545 43.8994 24.6777 44.4023 22.5992 44.4023ZM22.5992 41.4187C23.8508 41.4187 24.9683 41.0499 25.9516 40.3124C26.9573 39.5749 27.7396 38.5244 28.2983 37.1611C28.857 35.7978 29.1364 34.1663 29.1364 32.2667C29.1364 30.367 28.857 28.7355 28.2983 27.3722C27.7396 26.0089 26.9573 24.9696 25.9516 24.2545C24.9683 23.5169 23.8508 23.1482 22.5992 23.1482C21.3253 23.1482 20.1855 23.5169 19.1798 24.2545C18.1741 24.9696 17.3919 26.0089 16.8331 27.3722C16.2744 28.7355 15.995 30.367 15.995 32.2667C15.995 34.1663 16.2744 35.7978 16.8331 37.1611C17.3919 38.5244 18.1741 39.5749 19.1798 40.3124C20.1855 41.0499 21.3253 41.4187 22.5992 41.4187ZM35.8618 44V41.5863C37.4263 40.3794 38.9125 39.1614 40.3205 37.9322C41.7285 36.703 42.9801 35.485 44.0752 34.2781C45.1926 33.0489 46.0642 31.8532 46.69 30.691C47.3158 29.5065 47.6287 28.3779 47.6287 27.3051C47.6287 26.5453 47.4946 25.8413 47.2264 25.1931C46.9582 24.545 46.5336 24.0198 45.9525 23.6175C45.3714 23.1929 44.578 22.9806 43.5723 22.9806C42.6113 22.9806 41.8067 23.1929 41.1586 23.6175C40.5328 24.0422 40.0523 24.6121 39.7171 25.3272C39.4042 26.0201 39.2477 26.7911 39.2477 27.6404H35.9959C36.0183 26.0312 36.3647 24.6679 37.0352 23.5505C37.7056 22.433 38.6108 21.5837 39.7506 21.0027C40.9128 20.4216 42.209 20.131 43.6394 20.131C45.1368 20.131 46.433 20.4104 47.5281 20.9691C48.6232 21.5055 49.4725 22.2989 50.0759 23.3493C50.6794 24.3774 50.9811 25.6401 50.9811 27.1375C50.9811 28.2103 50.7688 29.283 50.3441 30.3558C49.9195 31.4062 49.3384 32.4343 48.6009 33.44C47.8857 34.4457 47.0811 35.4179 46.1872 36.3566C45.2932 37.2729 44.3657 38.1445 43.4047 38.9714C42.466 39.7983 41.5609 40.547 40.6893 41.2175H51.7186V44H35.8618Z" fill="white"/>
<path d="M106 54.0127C106 54.0127 165.853 14.8508 240.447 14.0127C315.04 13.1746 376 54.0127 376 54.0127" stroke="url(#paint1_linear_2111_4)"/>
<defs>
<linearGradient id="paint0_linear_2111_4" x1="94.0952" y1="-16" x2="-4.82744e-06" y2="43.0476" gradientUnits="userSpaceOnUse">
<stop stop-color="white"/>
<stop offset="1" stop-color="white" stop-opacity="0"/>
</linearGradient>
<linearGradient id="paint1_linear_2111_4" x1="376" y1="34.0064" x2="106" y2="34.0064" gradientUnits="userSpaceOnUse">
<stop stop-color="#1D1E2D"/>
<stop offset="1" stop-color="#E0E0E2"/>
</linearGradient>
</defs>
</svg>
