<svg width="353" height="64" viewBox="0 0 353 64" fill="none" xmlns="http://www.w3.org/2000/svg">
<circle cx="32" cy="32" r="31.619" transform="matrix(-1 0 0 1 64.3335 0)" stroke="url(#paint0_linear_2111_6)" stroke-width="0.761905"/>
<path d="M21.5997 44.4023C19.5213 44.4023 17.7333 43.8994 16.2359 42.8937C14.7385 41.8657 13.5875 40.4465 12.783 38.6362C11.9784 36.8036 11.5761 34.6804 11.5761 32.2667C11.5761 29.853 11.9784 27.741 12.783 25.9307C13.5875 24.098 14.7385 22.6789 16.2359 21.6731C17.7333 20.6451 19.5213 20.131 21.5997 20.131C23.6782 20.131 25.455 20.6451 26.93 21.6731C28.4274 22.6789 29.5672 24.098 30.3494 25.9307C31.154 27.741 31.5563 29.853 31.5563 32.2667C31.5563 34.6804 31.154 36.8036 30.3494 38.6362C29.5672 40.4465 28.4274 41.8657 26.93 42.8937C25.455 43.8994 23.6782 44.4023 21.5997 44.4023ZM21.5997 41.4187C22.8513 41.4187 23.9687 41.0499 24.9521 40.3124C25.9578 39.5749 26.74 38.5244 27.2988 37.1611C27.8575 35.7978 28.1369 34.1663 28.1369 32.2667C28.1369 30.367 27.8575 28.7355 27.2988 27.3722C26.74 26.0089 25.9578 24.9696 24.9521 24.2545C23.9687 23.5169 22.8513 23.1482 21.5997 23.1482C20.3258 23.1482 19.186 23.5169 18.1803 24.2545C17.1746 24.9696 16.3924 26.0089 15.8336 27.3722C15.2749 28.7355 14.9955 30.367 14.9955 32.2667C14.9955 34.1663 15.2749 35.7978 15.8336 37.1611C16.3924 38.5244 17.1746 39.5749 18.1803 40.3124C19.186 41.0499 20.3258 41.4187 21.5997 41.4187ZM43.0358 44.4023C41.5385 44.4023 40.164 44.1341 38.9124 43.5977C37.6832 43.039 36.6998 42.2121 35.9623 41.117C35.2471 39.9995 34.8672 38.6027 34.8225 36.9265H38.1749C38.1972 37.7757 38.3984 38.5468 38.7783 39.2396C39.1583 39.9324 39.7058 40.4912 40.421 40.9158C41.1585 41.3181 42.0301 41.5192 43.0358 41.5192C44.0416 41.5192 44.8797 41.3293 45.5501 40.9493C46.243 40.5694 46.757 40.0554 47.0922 39.4072C47.4498 38.7591 47.6286 38.0328 47.6286 37.2282C47.6286 36.2225 47.3828 35.4067 46.8911 34.781C46.4218 34.1552 45.7736 33.6858 44.9467 33.373C44.1421 33.0601 43.237 32.9036 42.2313 32.9036H40.488V30.0876H42.2313C43.6393 30.0876 44.7567 29.7636 45.5837 29.1154C46.4329 28.4673 46.8576 27.551 46.8576 26.3665C46.8576 25.3831 46.5335 24.5785 45.8854 23.9528C45.2372 23.327 44.2874 23.0141 43.0358 23.0141C41.7843 23.0141 40.7898 23.3717 40.0522 24.0869C39.3371 24.802 38.9348 25.7072 38.8454 26.8023H35.5265C35.5936 25.4837 35.94 24.3215 36.5658 23.3158C37.2139 22.2877 38.0855 21.5055 39.1806 20.9691C40.2981 20.4104 41.5831 20.131 43.0358 20.131C44.6003 20.131 45.9077 20.4104 46.9581 20.9691C48.0309 21.5055 48.8355 22.2319 49.3718 23.1482C49.9306 24.0645 50.2099 25.0702 50.2099 26.1653C50.2099 26.9923 50.0535 27.7633 49.7406 28.4785C49.4277 29.1713 48.9807 29.7747 48.3997 30.2888C47.8186 30.8028 47.1146 31.1716 46.2877 31.395C47.1816 31.5738 47.9862 31.9203 48.7014 32.4343C49.4165 32.9483 49.9753 33.6188 50.3776 34.4457C50.7798 35.2503 50.981 36.189 50.981 37.2617C50.981 38.5356 50.6793 39.7201 50.0758 40.8152C49.4724 41.888 48.5785 42.7596 47.3939 43.4301C46.2318 44.0782 44.7791 44.4023 43.0358 44.4023Z" fill="white"/>
<path d="M82 54.0127C82 54.0127 141.853 14.8508 216.447 14.0127C291.04 13.1746 352 54.0127 352 54.0127" stroke="url(#paint1_linear_2111_6)"/>
<defs>
<linearGradient id="paint0_linear_2111_6" x1="94.0952" y1="-16" x2="-4.82744e-06" y2="43.0476" gradientUnits="userSpaceOnUse">
<stop stop-color="white"/>
<stop offset="1" stop-color="white" stop-opacity="0"/>
</linearGradient>
<linearGradient id="paint1_linear_2111_6" x1="352" y1="34.0064" x2="82" y2="34.0064" gradientUnits="userSpaceOnUse">
<stop stop-color="#1D1E2D"/>
<stop offset="1" stop-color="#E0E0E2"/>
</linearGradient>
</defs>
</svg>
