<svg width="566" height="357" viewBox="0 0 566 357" fill="none" xmlns="http://www.w3.org/2000/svg">
<path d="M6.16 12V4.728L4.432 5.28V4.488L6.496 3.6H7.18V12H6.16ZM12.0496 12.144C11.3536 12.144 10.7536 11.964 10.2496 11.604C9.75356 11.236 9.36956 10.728 9.09756 10.08C8.82556 9.424 8.68956 8.664 8.68956 7.8C8.68956 6.936 8.82556 6.18 9.09756 5.532C9.36956 4.876 9.75356 4.368 10.2496 4.008C10.7536 3.64 11.3536 3.456 12.0496 3.456C12.7456 3.456 13.3416 3.64 13.8376 4.008C14.3336 4.368 14.7136 4.876 14.9776 5.532C15.2496 6.18 15.3856 6.936 15.3856 7.8C15.3856 8.664 15.2496 9.424 14.9776 10.08C14.7136 10.728 14.3336 11.236 13.8376 11.604C13.3416 11.964 12.7456 12.144 12.0496 12.144ZM12.0496 11.256C12.4896 11.256 12.8816 11.12 13.2256 10.848C13.5696 10.568 13.8416 10.172 14.0416 9.66C14.2496 9.14 14.3536 8.52 14.3536 7.8C14.3536 7.072 14.2496 6.452 14.0416 5.94C13.8416 5.428 13.5696 5.036 13.2256 4.764C12.8816 4.492 12.4896 4.356 12.0496 4.356C11.6016 4.356 11.2016 4.492 10.8496 4.764C10.4976 5.036 10.2216 5.428 10.0216 5.94C9.82156 6.452 9.72156 7.072 9.72156 7.8C9.72156 8.52 9.82156 9.14 10.0216 9.66C10.2216 10.172 10.4976 10.568 10.8496 10.848C11.2016 11.12 11.6016 11.256 12.0496 11.256ZM19.9246 12.144C19.2286 12.144 18.6286 11.964 18.1246 11.604C17.6286 11.236 17.2446 10.728 16.9726 10.08C16.7006 9.424 16.5646 8.664 16.5646 7.8C16.5646 6.936 16.7006 6.18 16.9726 5.532C17.2446 4.876 17.6286 4.368 18.1246 4.008C18.6286 3.64 19.2286 3.456 19.9246 3.456C20.6206 3.456 21.2166 3.64 21.7126 4.008C22.2086 4.368 22.5886 4.876 22.8526 5.532C23.1246 6.18 23.2606 6.936 23.2606 7.8C23.2606 8.664 23.1246 9.424 22.8526 10.08C22.5886 10.728 22.2086 11.236 21.7126 11.604C21.2166 11.964 20.6206 12.144 19.9246 12.144ZM19.9246 11.256C20.3646 11.256 20.7566 11.12 21.1006 10.848C21.4446 10.568 21.7166 10.172 21.9166 9.66C22.1246 9.14 22.2286 8.52 22.2286 7.8C22.2286 7.072 22.1246 6.452 21.9166 5.94C21.7166 5.428 21.4446 5.036 21.1006 4.764C20.7566 4.492 20.3646 4.356 19.9246 4.356C19.4766 4.356 19.0766 4.492 18.7246 4.764C18.3726 5.036 18.0966 5.428 17.8966 5.94C17.6966 6.452 17.5966 7.072 17.5966 7.8C17.5966 8.52 17.6966 9.14 17.8966 9.66C18.0966 10.172 18.3726 10.568 18.7246 10.848C19.0766 11.12 19.4766 11.256 19.9246 11.256Z" fill="#7B7B7C"/>
<path d="M11.624 64.5439C11.096 64.5439 10.616 64.4439 10.184 64.2439C9.76 64.0359 9.424 63.7519 9.176 63.3919C8.928 63.0239 8.804 62.5999 8.804 62.1199C8.804 61.7759 8.868 61.4559 8.996 61.1599C9.132 60.8639 9.316 60.6079 9.548 60.3919C9.78 60.1679 10.052 60.0119 10.364 59.9239C9.94 59.7639 9.608 59.5159 9.368 59.1799C9.128 58.8439 9.008 58.4799 9.008 58.0879C9.008 57.6719 9.112 57.2959 9.32 56.9599C9.536 56.6239 9.84 56.3559 10.232 56.1559C10.624 55.9559 11.088 55.8559 11.624 55.8559C12.168 55.8559 12.632 55.9559 13.016 56.1559C13.408 56.3559 13.708 56.6239 13.916 56.9599C14.124 57.2959 14.228 57.6719 14.228 58.0879C14.228 58.4799 14.108 58.8439 13.868 59.1799C13.636 59.5159 13.308 59.7639 12.884 59.9239C13.196 60.0119 13.468 60.1679 13.7 60.3919C13.932 60.6079 14.112 60.8639 14.24 61.1599C14.376 61.4559 14.444 61.7759 14.444 62.1199C14.444 62.5999 14.32 63.0239 14.072 63.3919C13.824 63.7519 13.484 64.0359 13.052 64.2439C12.628 64.4439 12.152 64.5439 11.624 64.5439ZM11.624 63.6559C12.224 63.6559 12.676 63.5119 12.98 63.2239C13.284 62.9279 13.436 62.5399 13.436 62.0599C13.436 61.5159 13.268 61.1039 12.932 60.8239C12.604 60.5439 12.168 60.4039 11.624 60.4039C11.08 60.4039 10.64 60.5439 10.304 60.8239C9.976 61.1039 9.812 61.5159 9.812 62.0599C9.812 62.5399 9.96 62.9279 10.256 63.2239C10.56 63.5119 11.016 63.6559 11.624 63.6559ZM11.624 59.5639C12.104 59.5639 12.488 59.4319 12.776 59.1679C13.064 58.9039 13.208 58.5639 13.208 58.1479C13.208 57.6759 13.064 57.3199 12.776 57.0799C12.496 56.8399 12.112 56.7199 11.624 56.7199C11.136 56.7199 10.748 56.8399 10.46 57.0799C10.18 57.3199 10.04 57.6759 10.04 58.1479C10.04 58.5639 10.184 58.9039 10.472 59.1679C10.76 59.4319 11.144 59.5639 11.624 59.5639ZM19.1902 64.5439C18.4942 64.5439 17.8942 64.3639 17.3902 64.0039C16.8942 63.6359 16.5102 63.1279 16.2382 62.4799C15.9662 61.8239 15.8302 61.0639 15.8302 60.1999C15.8302 59.3359 15.9662 58.5799 16.2382 57.9319C16.5102 57.2759 16.8942 56.7679 17.3902 56.4079C17.8942 56.0399 18.4942 55.8559 19.1902 55.8559C19.8862 55.8559 20.4822 56.0399 20.9782 56.4079C21.4742 56.7679 21.8542 57.2759 22.1182 57.9319C22.3902 58.5799 22.5262 59.3359 22.5262 60.1999C22.5262 61.0639 22.3902 61.8239 22.1182 62.4799C21.8542 63.1279 21.4742 63.6359 20.9782 64.0039C20.4822 64.3639 19.8862 64.5439 19.1902 64.5439ZM19.1902 63.6559C19.6302 63.6559 20.0222 63.5199 20.3662 63.2479C20.7102 62.9679 20.9822 62.5719 21.1822 62.0599C21.3902 61.5399 21.4942 60.9199 21.4942 60.1999C21.4942 59.4719 21.3902 58.8519 21.1822 58.3399C20.9822 57.8279 20.7102 57.4359 20.3662 57.1639C20.0222 56.8919 19.6302 56.7559 19.1902 56.7559C18.7422 56.7559 18.3422 56.8919 17.9902 57.1639C17.6382 57.4359 17.3622 57.8279 17.1622 58.3399C16.9622 58.8519 16.8622 59.4719 16.8622 60.1999C16.8622 60.9199 16.9622 61.5399 17.1622 62.0599C17.3622 62.5719 17.6382 62.9679 17.9902 63.2479C18.3422 63.5199 18.7422 63.6559 19.1902 63.6559Z" fill="#7B7B7C"/>
<path d="M11.9 116.944C11.3 116.944 10.792 116.832 10.376 116.608C9.968 116.384 9.64 116.084 9.392 115.708C9.152 115.324 8.976 114.892 8.864 114.412C8.752 113.932 8.696 113.44 8.696 112.936C8.696 112.008 8.82 111.196 9.068 110.5C9.324 109.796 9.692 109.248 10.172 108.856C10.652 108.456 11.232 108.256 11.912 108.256C12.44 108.256 12.892 108.356 13.268 108.556C13.652 108.756 13.956 109.024 14.18 109.36C14.404 109.688 14.54 110.056 14.588 110.464H13.652C13.572 110.04 13.376 109.712 13.064 109.48C12.76 109.248 12.372 109.132 11.9 109.132C11.476 109.132 11.096 109.264 10.76 109.528C10.432 109.792 10.172 110.192 9.98 110.728C9.788 111.256 9.68 111.932 9.656 112.756C9.656 112.772 9.656 112.788 9.656 112.804C9.656 112.82 9.656 112.836 9.656 112.852C9.768 112.596 9.936 112.36 10.16 112.144C10.384 111.928 10.656 111.756 10.976 111.628C11.296 111.492 11.648 111.424 12.032 111.424C12.504 111.424 12.94 111.536 13.34 111.76C13.748 111.984 14.076 112.3 14.324 112.708C14.572 113.108 14.696 113.58 14.696 114.124C14.696 114.596 14.58 115.048 14.348 115.48C14.124 115.912 13.804 116.264 13.388 116.536C12.972 116.808 12.476 116.944 11.9 116.944ZM11.828 116.056C12.18 116.056 12.492 115.976 12.764 115.816C13.044 115.656 13.264 115.436 13.424 115.156C13.592 114.868 13.676 114.54 13.676 114.172C13.676 113.796 13.592 113.468 13.424 113.188C13.264 112.908 13.044 112.692 12.764 112.54C12.492 112.38 12.18 112.3 11.828 112.3C11.468 112.3 11.144 112.384 10.856 112.552C10.568 112.712 10.34 112.936 10.172 113.224C10.004 113.504 9.92 113.824 9.92 114.184C9.92 114.552 10.004 114.88 10.172 115.168C10.34 115.448 10.568 115.668 10.856 115.828C11.144 115.98 11.468 116.056 11.828 116.056ZM19.4363 116.944C18.7403 116.944 18.1403 116.764 17.6363 116.404C17.1403 116.036 16.7563 115.528 16.4843 114.88C16.2123 114.224 16.0763 113.464 16.0763 112.6C16.0763 111.736 16.2123 110.98 16.4843 110.332C16.7563 109.676 17.1403 109.168 17.6363 108.808C18.1403 108.44 18.7403 108.256 19.4363 108.256C20.1323 108.256 20.7283 108.44 21.2243 108.808C21.7203 109.168 22.1003 109.676 22.3643 110.332C22.6363 110.98 22.7723 111.736 22.7723 112.6C22.7723 113.464 22.6363 114.224 22.3643 114.88C22.1003 115.528 21.7203 116.036 21.2243 116.404C20.7283 116.764 20.1323 116.944 19.4363 116.944ZM19.4363 116.056C19.8763 116.056 20.2683 115.92 20.6123 115.648C20.9563 115.368 21.2283 114.972 21.4283 114.46C21.6363 113.94 21.7403 113.32 21.7403 112.6C21.7403 111.872 21.6363 111.252 21.4283 110.74C21.2283 110.228 20.9563 109.836 20.6123 109.564C20.2683 109.292 19.8763 109.156 19.4363 109.156C18.9883 109.156 18.5883 109.292 18.2363 109.564C17.8843 109.836 17.6083 110.228 17.4083 110.74C17.2083 111.252 17.1083 111.872 17.1083 112.6C17.1083 113.32 17.2083 113.94 17.4083 114.46C17.6083 114.972 17.8843 115.368 18.2363 115.648C18.5883 115.92 18.9883 116.056 19.4363 116.056Z" fill="#7B7B7C"/>
<path d="M12.752 169.2V167.4H8.492V166.62L12.572 160.8H13.748V166.512H14.996V167.4H13.748V169.2H12.752ZM9.608 166.512H12.8V161.916L9.608 166.512ZM19.3191 169.344C18.6231 169.344 18.0231 169.164 17.5191 168.804C17.0231 168.436 16.6391 167.928 16.3671 167.28C16.0951 166.624 15.9591 165.864 15.9591 165C15.9591 164.136 16.0951 163.38 16.3671 162.732C16.6391 162.076 17.0231 161.568 17.5191 161.208C18.0231 160.84 18.6231 160.656 19.3191 160.656C20.0151 160.656 20.6111 160.84 21.1071 161.208C21.6031 161.568 21.9831 162.076 22.2471 162.732C22.5191 163.38 22.6551 164.136 22.6551 165C22.6551 165.864 22.5191 166.624 22.2471 167.28C21.9831 167.928 21.6031 168.436 21.1071 168.804C20.6111 169.164 20.0151 169.344 19.3191 169.344ZM19.3191 168.456C19.7591 168.456 20.1511 168.32 20.4951 168.048C20.8391 167.768 21.1111 167.372 21.3111 166.86C21.5191 166.34 21.6231 165.72 21.6231 165C21.6231 164.272 21.5191 163.652 21.3111 163.14C21.1111 162.628 20.8391 162.236 20.4951 161.964C20.1511 161.692 19.7591 161.556 19.3191 161.556C18.8711 161.556 18.4711 161.692 18.1191 161.964C17.7671 162.236 17.4911 162.628 17.2911 163.14C17.0911 163.652 16.9911 164.272 16.9911 165C16.9911 165.72 17.0911 166.34 17.2911 166.86C17.4911 167.372 17.7671 167.768 18.1191 168.048C18.4711 168.32 18.8711 168.456 19.3191 168.456Z" fill="#7B7B7C"/>
<path d="M9.78 221.6V220.892C10.372 220.444 10.932 219.992 11.46 219.536C11.988 219.08 12.456 218.628 12.864 218.18C13.272 217.724 13.592 217.28 13.824 216.848C14.056 216.416 14.172 216 14.172 215.6C14.172 215.304 14.116 215.032 14.004 214.784C13.9 214.528 13.728 214.32 13.488 214.16C13.256 214 12.94 213.92 12.54 213.92C12.156 213.92 11.836 214.004 11.58 214.172C11.324 214.332 11.132 214.548 11.004 214.82C10.876 215.084 10.812 215.376 10.812 215.696H9.84C9.848 215.144 9.968 214.672 10.2 214.28C10.432 213.88 10.752 213.576 11.16 213.368C11.568 213.16 12.032 213.056 12.552 213.056C13.064 213.056 13.516 213.152 13.908 213.344C14.3 213.528 14.608 213.808 14.832 214.184C15.064 214.552 15.18 215.012 15.18 215.564C15.18 215.956 15.096 216.348 14.928 216.74C14.768 217.132 14.548 217.516 14.268 217.892C13.988 218.26 13.676 218.616 13.332 218.96C12.996 219.304 12.648 219.628 12.288 219.932C11.928 220.236 11.588 220.512 11.268 220.76H15.468V221.6H9.78ZM19.8972 221.744C19.2012 221.744 18.6012 221.564 18.0972 221.204C17.6012 220.836 17.2172 220.328 16.9452 219.68C16.6732 219.024 16.5372 218.264 16.5372 217.4C16.5372 216.536 16.6732 215.78 16.9452 215.132C17.2172 214.476 17.6012 213.968 18.0972 213.608C18.6012 213.24 19.2012 213.056 19.8972 213.056C20.5932 213.056 21.1892 213.24 21.6852 213.608C22.1812 213.968 22.5612 214.476 22.8252 215.132C23.0972 215.78 23.2332 216.536 23.2332 217.4C23.2332 218.264 23.0972 219.024 22.8252 219.68C22.5612 220.328 22.1812 220.836 21.6852 221.204C21.1892 221.564 20.5932 221.744 19.8972 221.744ZM19.8972 220.856C20.3372 220.856 20.7292 220.72 21.0732 220.448C21.4172 220.168 21.6892 219.772 21.8892 219.26C22.0972 218.74 22.2012 218.12 22.2012 217.4C22.2012 216.672 22.0972 216.052 21.8892 215.54C21.6892 215.028 21.4172 214.636 21.0732 214.364C20.7292 214.092 20.3372 213.956 19.8972 213.956C19.4492 213.956 19.0492 214.092 18.6972 214.364C18.3452 214.636 18.0692 215.028 17.8692 215.54C17.6692 216.052 17.5692 216.672 17.5692 217.4C17.5692 218.12 17.6692 218.74 17.8692 219.26C18.0692 219.772 18.3452 220.168 18.6972 220.448C19.0492 220.72 19.4492 220.856 19.8972 220.856Z" fill="#7B7B7C"/>
<path d="M19.948 274.144C19.252 274.144 18.652 273.964 18.148 273.604C17.652 273.236 17.268 272.728 16.996 272.08C16.724 271.424 16.588 270.664 16.588 269.8C16.588 268.936 16.724 268.18 16.996 267.532C17.268 266.876 17.652 266.368 18.148 266.008C18.652 265.64 19.252 265.456 19.948 265.456C20.644 265.456 21.24 265.64 21.736 266.008C22.232 266.368 22.612 266.876 22.876 267.532C23.148 268.18 23.284 268.936 23.284 269.8C23.284 270.664 23.148 271.424 22.876 272.08C22.612 272.728 22.232 273.236 21.736 273.604C21.24 273.964 20.644 274.144 19.948 274.144ZM19.948 273.256C20.388 273.256 20.78 273.12 21.124 272.848C21.468 272.568 21.74 272.172 21.94 271.66C22.148 271.14 22.252 270.52 22.252 269.8C22.252 269.072 22.148 268.452 21.94 267.94C21.74 267.428 21.468 267.036 21.124 266.764C20.78 266.492 20.388 266.356 19.948 266.356C19.5 266.356 19.1 266.492 18.748 266.764C18.396 267.036 18.12 267.428 17.92 267.94C17.72 268.452 17.62 269.072 17.62 269.8C17.62 270.52 17.72 271.14 17.92 271.66C18.12 272.172 18.396 272.568 18.748 272.848C19.1 273.12 19.5 273.256 19.948 273.256Z" fill="#7B7B7C"/>
<line x1="29" y1="5.5" x2="565" y2="5.5" stroke="#7B7B7C" stroke-dasharray="2"/>
<line x1="29" y1="58.7" x2="565" y2="58.7" stroke="#7B7B7C" stroke-dasharray="2"/>
<line x1="29" y1="111.9" x2="565" y2="111.9" stroke="#7B7B7C" stroke-dasharray="2"/>
<line x1="29" y1="165.1" x2="565" y2="165.1" stroke="#7B7B7C" stroke-dasharray="2"/>
<line x1="29" y1="218.3" x2="565" y2="218.3" stroke="#7B7B7C" stroke-dasharray="2"/>
<line x1="29" y1="271.5" x2="565" y2="271.5" stroke="#7B7B7C"/>
<line x1="28.5" y1="272" x2="28.5" y2="6" stroke="#7B7B7C" stroke-dasharray="2"/>
<line x1="73.1667" y1="272" x2="73.1667" y2="6" stroke="#7B7B7C" stroke-dasharray="2"/>
<line x1="117.833" y1="272" x2="117.833" y2="6" stroke="#7B7B7C" stroke-dasharray="2"/>
<line x1="162.5" y1="272" x2="162.5" y2="6" stroke="#7B7B7C" stroke-dasharray="2"/>
<line x1="207.167" y1="272" x2="207.167" y2="6" stroke="#7B7B7C" stroke-dasharray="2"/>
<line x1="251.833" y1="272" x2="251.833" y2="6" stroke="#7B7B7C" stroke-dasharray="2"/>
<line x1="296.5" y1="272" x2="296.5" y2="6" stroke="#7B7B7C" stroke-dasharray="2"/>
<line x1="341.167" y1="272" x2="341.167" y2="6" stroke="#7B7B7C" stroke-dasharray="2"/>
<line x1="385.833" y1="272" x2="385.833" y2="6" stroke="#7B7B7C" stroke-dasharray="2"/>
<line x1="430.5" y1="272" x2="430.5" y2="6" stroke="#7B7B7C" stroke-dasharray="2"/>
<line x1="475.167" y1="272" x2="475.167" y2="6" stroke="#7B7B7C" stroke-dasharray="2"/>
<line x1="519.833" y1="272" x2="519.833" y2="6" stroke="#7B7B7C" stroke-dasharray="2"/>
<line x1="564.5" y1="272" x2="564.5" y2="6" stroke="#7B7B7C" stroke-dasharray="2"/>
<path d="M50.4167 160.12L95.2501 139L140.083 178.6L184.917 54.5201L229.75 231.4H274.583L319.417 131.08L364.25 175.96L409.083 22.8401H453.917L498.75 128.44L543.583 231.4M543.583 231.4V231.4Z" stroke="#6FD195"/>
<circle opacity="0.25" cx="50.4167" cy="160.12" r="8" fill="#6FD195"/>
<circle cx="50.4167" cy="160.12" r="3.5" fill="#6FD195" stroke="white"/>
<circle opacity="0.25" cx="95.25" cy="139" r="8" fill="#6FD195"/>
<circle cx="95.25" cy="139" r="3.5" fill="#6FD195" stroke="white"/>
<circle opacity="0.25" cx="140.083" cy="178.6" r="8" fill="#6FD195"/>
<circle cx="140.083" cy="178.6" r="3.5" fill="#6FD195" stroke="white"/>
<circle opacity="0.25" cx="184.917" cy="54.52" r="8" fill="#6FD195"/>
<circle cx="184.917" cy="54.52" r="3.5" fill="#6FD195" stroke="white"/>
<circle opacity="0.25" cx="229.75" cy="231.4" r="8" fill="#6FD195"/>
<circle cx="229.75" cy="231.4" r="3.5" fill="#6FD195" stroke="white"/>
<circle opacity="0.25" cx="274.583" cy="231.4" r="8" fill="#6FD195"/>
<circle cx="274.583" cy="231.4" r="3.5" fill="#6FD195" stroke="white"/>
<circle opacity="0.25" cx="319.417" cy="131.08" r="8" fill="#6FD195"/>
<circle cx="319.417" cy="131.08" r="3.5" fill="#6FD195" stroke="white"/>
<circle opacity="0.25" cx="364.25" cy="175.96" r="8" fill="#6FD195"/>
<circle cx="364.25" cy="175.96" r="3.5" fill="#6FD195" stroke="white"/>
<circle opacity="0.25" cx="409.083" cy="22.8401" r="8" fill="#6FD195"/>
<circle cx="409.083" cy="22.8401" r="3.5" fill="#6FD195" stroke="white"/>
<circle opacity="0.25" cx="453.917" cy="22.8401" r="8" fill="#6FD195"/>
<circle cx="453.917" cy="22.8401" r="3.5" fill="#6FD195" stroke="white"/>
<circle opacity="0.25" cx="498.75" cy="128.44" r="8" fill="#6FD195"/>
<circle cx="498.75" cy="128.44" r="3.5" fill="#6FD195" stroke="white"/>
<circle opacity="0.25" cx="543.583" cy="231.4" r="8" fill="#6FD195"/>
<circle cx="543.583" cy="231.4" r="3.5" fill="#6FD195" stroke="white"/>
<path d="M50.4167 88.8401L95.2501 226.12L140.083 186.52L184.917 218.2L229.75 162.76L274.583 241.96L319.417 120.52L364.25 231.4L409.083 120.52L453.917 133.72L498.75 28.1201L543.583 160.12M543.583 160.12V160.12Z" stroke="#7086FD"/>
<circle opacity="0.25" cx="50.4167" cy="88.8401" r="8" fill="#7086FD"/>
<circle cx="50.4167" cy="88.8401" r="3.5" fill="#7086FD" stroke="white"/>
<circle opacity="0.25" cx="95.25" cy="226.12" r="8" fill="#7086FD"/>
<circle cx="95.25" cy="226.12" r="3.5" fill="#7086FD" stroke="white"/>
<circle opacity="0.25" cx="140.083" cy="186.52" r="8" fill="#7086FD"/>
<circle cx="140.083" cy="186.52" r="3.5" fill="#7086FD" stroke="white"/>
<circle opacity="0.25" cx="184.917" cy="218.2" r="8" fill="#7086FD"/>
<circle cx="184.917" cy="218.2" r="3.5" fill="#7086FD" stroke="white"/>
<circle opacity="0.25" cx="229.75" cy="162.76" r="8" fill="#7086FD"/>
<circle cx="229.75" cy="162.76" r="3.5" fill="#7086FD" stroke="white"/>
<circle opacity="0.25" cx="274.583" cy="241.96" r="8" fill="#7086FD"/>
<circle cx="274.583" cy="241.96" r="3.5" fill="#7086FD" stroke="white"/>
<circle opacity="0.25" cx="319.417" cy="120.52" r="8" fill="#7086FD"/>
<circle cx="319.417" cy="120.52" r="3.5" fill="#7086FD" stroke="white"/>
<circle opacity="0.25" cx="364.25" cy="231.4" r="8" fill="#7086FD"/>
<circle cx="364.25" cy="231.4" r="3.5" fill="#7086FD" stroke="white"/>
<circle opacity="0.25" cx="409.083" cy="120.52" r="8" fill="#7086FD"/>
<circle cx="409.083" cy="120.52" r="3.5" fill="#7086FD" stroke="white"/>
<circle opacity="0.25" cx="453.917" cy="133.72" r="8" fill="#7086FD"/>
<circle cx="453.917" cy="133.72" r="3.5" fill="#7086FD" stroke="white"/>
<circle opacity="0.25" cx="498.75" cy="28.1201" r="8" fill="#7086FD"/>
<circle cx="498.75" cy="28.1201" r="3.5" fill="#7086FD" stroke="white"/>
<circle opacity="0.25" cx="543.583" cy="160.12" r="8" fill="#7086FD"/>
<circle cx="543.583" cy="160.12" r="3.5" fill="#7086FD" stroke="white"/>
<path d="M44.3805 288.144C43.8765 288.144 43.4405 288.048 43.0725 287.856C42.7125 287.664 42.4325 287.388 42.2325 287.028C42.0405 286.668 41.9445 286.24 41.9445 285.744H42.9645C42.9645 286.024 43.0085 286.28 43.0965 286.512C43.1925 286.736 43.3405 286.916 43.5405 287.052C43.7485 287.18 44.0245 287.244 44.3685 287.244C44.7045 287.244 44.9685 287.18 45.1605 287.052C45.3605 286.924 45.5005 286.752 45.5805 286.536C45.6685 286.312 45.7125 286.06 45.7125 285.78V279.6H46.7205V285.78C46.7205 286.532 46.5125 287.116 46.0965 287.532C45.6885 287.94 45.1165 288.144 44.3805 288.144ZM50.4626 288.144C49.9826 288.144 49.5826 288.056 49.2626 287.88C48.9426 287.696 48.7026 287.456 48.5426 287.16C48.3826 286.856 48.3026 286.532 48.3026 286.188C48.3026 285.772 48.4066 285.42 48.6146 285.132C48.8306 284.836 49.1306 284.612 49.5146 284.46C49.8986 284.308 50.3466 284.232 50.8586 284.232H52.4306C52.4306 283.824 52.3826 283.484 52.2866 283.212C52.1906 282.94 52.0346 282.736 51.8186 282.6C51.6026 282.464 51.3146 282.396 50.9546 282.396C50.5946 282.396 50.2866 282.488 50.0306 282.672C49.7746 282.848 49.6146 283.112 49.5506 283.464H48.5186C48.5666 283.048 48.7066 282.7 48.9386 282.42C49.1706 282.132 49.4626 281.916 49.8146 281.772C50.1746 281.62 50.5546 281.544 50.9546 281.544C51.5226 281.544 51.9906 281.648 52.3586 281.856C52.7266 282.056 52.9986 282.34 53.1746 282.708C53.3506 283.068 53.4386 283.496 53.4386 283.992V288H52.5386L52.4786 286.92C52.3986 287.088 52.2946 287.248 52.1666 287.4C52.0466 287.544 51.9026 287.672 51.7346 287.784C51.5666 287.896 51.3746 287.984 51.1586 288.048C50.9506 288.112 50.7186 288.144 50.4626 288.144ZM50.6066 287.292C50.8706 287.292 51.1146 287.232 51.3386 287.112C51.5626 286.992 51.7546 286.832 51.9146 286.632C52.0826 286.424 52.2106 286.192 52.2986 285.936C52.3866 285.68 52.4306 285.412 52.4306 285.132V285.012H50.9426C50.5666 285.012 50.2586 285.06 50.0186 285.156C49.7866 285.252 49.6186 285.388 49.5146 285.564C49.4106 285.732 49.3586 285.924 49.3586 286.14C49.3586 286.372 49.4066 286.576 49.5026 286.752C49.5986 286.92 49.7386 287.052 49.9226 287.148C50.1146 287.244 50.3426 287.292 50.6066 287.292ZM55.104 288V281.688H56.016L56.064 282.684C56.248 282.324 56.512 282.044 56.856 281.844C57.208 281.644 57.612 281.544 58.068 281.544C58.532 281.544 58.936 281.632 59.28 281.808C59.624 281.984 59.892 282.252 60.084 282.612C60.276 282.972 60.372 283.428 60.372 283.98V288H59.364V284.088C59.364 283.528 59.224 283.108 58.944 282.828C58.672 282.548 58.304 282.408 57.84 282.408C57.528 282.408 57.24 282.484 56.976 282.636C56.712 282.78 56.5 282.996 56.34 283.284C56.188 283.572 56.112 283.924 56.112 284.34V288H55.104Z" fill="#7B7B7C"/>
<path d="M86.8127 288V279.6H91.9247V280.428H87.8207V283.38H91.3127V284.196H87.8207V288H86.8127ZM95.5676 288.144C95.0076 288.144 94.5116 288.008 94.0796 287.736C93.6476 287.464 93.3076 287.08 93.0596 286.584C92.8196 286.088 92.6996 285.508 92.6996 284.844C92.6996 284.18 92.8196 283.6 93.0596 283.104C93.3076 282.608 93.6476 282.224 94.0796 281.952C94.5196 281.68 95.0236 281.544 95.5916 281.544C96.1996 281.544 96.7076 281.68 97.1156 281.952C97.5236 282.224 97.8316 282.588 98.0396 283.044C98.2476 283.5 98.3516 284 98.3516 284.544C98.3516 284.624 98.3516 284.704 98.3516 284.784C98.3516 284.864 98.3476 284.96 98.3396 285.072H93.4556V284.292H97.3676C97.3516 283.676 97.1716 283.208 96.8276 282.888C96.4916 282.56 96.0716 282.396 95.5676 282.396C95.2316 282.396 94.9196 282.48 94.6316 282.648C94.3516 282.808 94.1236 283.048 93.9476 283.368C93.7716 283.688 93.6836 284.088 93.6836 284.568V284.904C93.6836 285.432 93.7716 285.876 93.9476 286.236C94.1236 286.588 94.3516 286.852 94.6316 287.028C94.9196 287.204 95.2316 287.292 95.5676 287.292C96.0156 287.292 96.3676 287.208 96.6236 287.04C96.8796 286.864 97.0676 286.616 97.1876 286.296H98.1836C98.0876 286.648 97.9196 286.964 97.6796 287.244C97.4476 287.524 97.1516 287.744 96.7916 287.904C96.4396 288.064 96.0316 288.144 95.5676 288.144ZM102.892 288.144C102.508 288.144 102.176 288.088 101.896 287.976C101.624 287.856 101.392 287.708 101.2 287.532C101.016 287.356 100.864 287.184 100.744 287.016L100.66 288H99.7485V279.36H100.756V282.684C100.948 282.308 101.232 282.024 101.608 281.832C101.984 281.64 102.404 281.544 102.868 281.544C103.444 281.544 103.948 281.684 104.38 281.964C104.812 282.244 105.148 282.632 105.388 283.128C105.628 283.616 105.748 284.18 105.748 284.82C105.748 285.452 105.628 286.02 105.388 286.524C105.148 287.028 104.812 287.424 104.38 287.712C103.956 288 103.46 288.144 102.892 288.144ZM102.76 287.268C103.136 287.268 103.468 287.172 103.756 286.98C104.052 286.78 104.284 286.5 104.452 286.14C104.628 285.772 104.716 285.34 104.716 284.844C104.716 284.348 104.628 283.92 104.452 283.56C104.284 283.192 104.052 282.912 103.756 282.72C103.468 282.52 103.136 282.42 102.76 282.42C102.36 282.42 102.012 282.52 101.716 282.72C101.42 282.912 101.192 283.192 101.032 283.56C100.872 283.92 100.792 284.348 100.792 284.844C100.792 285.34 100.872 285.772 101.032 286.14C101.192 286.5 101.42 286.78 101.716 286.98C102.012 287.172 102.36 287.268 102.76 287.268Z" fill="#7B7B7C"/>
<path d="M131.205 288V279.6H132.381L135.237 285.516L138.069 279.6H139.257V288H138.249V281.412L135.609 286.896H134.853L132.213 281.46V288H131.205ZM143.004 288.144C142.524 288.144 142.124 288.056 141.804 287.88C141.484 287.696 141.244 287.456 141.084 287.16C140.924 286.856 140.844 286.532 140.844 286.188C140.844 285.772 140.948 285.42 141.156 285.132C141.372 284.836 141.672 284.612 142.056 284.46C142.44 284.308 142.888 284.232 143.4 284.232H144.972C144.972 283.824 144.924 283.484 144.828 283.212C144.732 282.94 144.576 282.736 144.36 282.6C144.144 282.464 143.856 282.396 143.496 282.396C143.136 282.396 142.828 282.488 142.572 282.672C142.316 282.848 142.156 283.112 142.092 283.464H141.06C141.108 283.048 141.248 282.7 141.48 282.42C141.712 282.132 142.004 281.916 142.356 281.772C142.716 281.62 143.096 281.544 143.496 281.544C144.064 281.544 144.532 281.648 144.9 281.856C145.268 282.056 145.54 282.34 145.716 282.708C145.892 283.068 145.98 283.496 145.98 283.992V288H145.08L145.02 286.92C144.94 287.088 144.836 287.248 144.708 287.4C144.588 287.544 144.444 287.672 144.276 287.784C144.108 287.896 143.916 287.984 143.7 288.048C143.492 288.112 143.26 288.144 143.004 288.144ZM143.148 287.292C143.412 287.292 143.656 287.232 143.88 287.112C144.104 286.992 144.296 286.832 144.456 286.632C144.624 286.424 144.752 286.192 144.84 285.936C144.928 285.68 144.972 285.412 144.972 285.132V285.012H143.484C143.108 285.012 142.8 285.06 142.56 285.156C142.328 285.252 142.16 285.388 142.056 285.564C141.952 285.732 141.9 285.924 141.9 286.14C141.9 286.372 141.948 286.576 142.044 286.752C142.14 286.92 142.28 287.052 142.464 287.148C142.656 287.244 142.884 287.292 143.148 287.292ZM147.645 288V281.688H148.557L148.629 282.84C148.773 282.552 148.961 282.312 149.193 282.12C149.425 281.928 149.705 281.784 150.033 281.688C150.369 281.592 150.745 281.544 151.161 281.544V282.6H150.537C150.297 282.6 150.065 282.632 149.841 282.696C149.617 282.76 149.413 282.864 149.229 283.008C149.053 283.152 148.913 283.348 148.809 283.596C148.705 283.844 148.653 284.156 148.653 284.532V288H147.645Z" fill="#7B7B7C"/>
<path d="M175.936 288L179.032 279.6H180.1L183.184 288H182.104L179.56 280.86L176.992 288H175.936ZM177.352 285.84L177.64 285.024H181.444L181.732 285.84H177.352ZM184.397 290.64V281.688H185.309L185.393 282.672C185.521 282.464 185.681 282.276 185.873 282.108C186.073 281.94 186.309 281.804 186.581 281.7C186.861 281.596 187.181 281.544 187.541 281.544C188.109 281.544 188.605 281.688 189.029 281.976C189.461 282.264 189.797 282.656 190.037 283.152C190.277 283.648 190.397 284.216 190.397 284.856C190.397 285.488 190.277 286.052 190.037 286.548C189.797 287.044 189.461 287.436 189.029 287.724C188.597 288.004 188.097 288.144 187.529 288.144C187.041 288.144 186.613 288.044 186.245 287.844C185.877 287.644 185.597 287.364 185.405 287.004V290.64H184.397ZM187.409 287.268C187.785 287.268 188.117 287.172 188.405 286.98C188.701 286.78 188.933 286.5 189.101 286.14C189.277 285.772 189.365 285.34 189.365 284.844C189.365 284.348 189.277 283.92 189.101 283.56C188.933 283.192 188.701 282.912 188.405 282.72C188.117 282.52 187.785 282.42 187.409 282.42C187.009 282.42 186.661 282.52 186.365 282.72C186.069 282.912 185.841 283.192 185.681 283.56C185.521 283.92 185.441 284.348 185.441 284.844C185.441 285.34 185.521 285.772 185.681 286.14C185.841 286.5 186.069 286.78 186.365 286.98C186.661 287.172 187.009 287.268 187.409 287.268ZM191.862 288V281.688H192.774L192.846 282.84C192.99 282.552 193.178 282.312 193.41 282.12C193.642 281.928 193.922 281.784 194.25 281.688C194.586 281.592 194.962 281.544 195.378 281.544V282.6H194.754C194.514 282.6 194.282 282.632 194.058 282.696C193.834 282.76 193.63 282.864 193.446 283.008C193.27 283.152 193.13 283.348 193.026 283.596C192.922 283.844 192.87 284.156 192.87 284.532V288H191.862Z" fill="#7B7B7C"/>
<path d="M219.791 288V279.6H220.967L223.823 285.516L226.655 279.6H227.843V288H226.835V281.412L224.195 286.896H223.439L220.799 281.46V288H219.791ZM231.59 288.144C231.11 288.144 230.71 288.056 230.39 287.88C230.07 287.696 229.83 287.456 229.67 287.16C229.51 286.856 229.43 286.532 229.43 286.188C229.43 285.772 229.534 285.42 229.742 285.132C229.958 284.836 230.258 284.612 230.642 284.46C231.026 284.308 231.474 284.232 231.986 284.232H233.558C233.558 283.824 233.51 283.484 233.414 283.212C233.318 282.94 233.162 282.736 232.946 282.6C232.73 282.464 232.442 282.396 232.082 282.396C231.722 282.396 231.414 282.488 231.158 282.672C230.902 282.848 230.742 283.112 230.678 283.464H229.646C229.694 283.048 229.834 282.7 230.066 282.42C230.298 282.132 230.59 281.916 230.942 281.772C231.302 281.62 231.682 281.544 232.082 281.544C232.65 281.544 233.118 281.648 233.486 281.856C233.854 282.056 234.126 282.34 234.302 282.708C234.478 283.068 234.566 283.496 234.566 283.992V288H233.666L233.606 286.92C233.526 287.088 233.422 287.248 233.294 287.4C233.174 287.544 233.03 287.672 232.862 287.784C232.694 287.896 232.502 287.984 232.286 288.048C232.078 288.112 231.846 288.144 231.59 288.144ZM231.734 287.292C231.998 287.292 232.242 287.232 232.466 287.112C232.69 286.992 232.882 286.832 233.042 286.632C233.21 286.424 233.338 286.192 233.426 285.936C233.514 285.68 233.558 285.412 233.558 285.132V285.012H232.07C231.694 285.012 231.386 285.06 231.146 285.156C230.914 285.252 230.746 285.388 230.642 285.564C230.538 285.732 230.486 285.924 230.486 286.14C230.486 286.372 230.534 286.576 230.63 286.752C230.726 286.92 230.866 287.052 231.05 287.148C231.242 287.244 231.47 287.292 231.734 287.292ZM236.763 290.64L238.191 287.328H237.843L235.479 281.688H236.571L238.527 286.548L240.567 281.688H241.611L237.807 290.64H236.763Z" fill="#7B7B7C"/>
<path d="M267.972 288.144C267.468 288.144 267.032 288.048 266.664 287.856C266.304 287.664 266.024 287.388 265.824 287.028C265.632 286.668 265.536 286.24 265.536 285.744H266.556C266.556 286.024 266.6 286.28 266.688 286.512C266.784 286.736 266.932 286.916 267.132 287.052C267.34 287.18 267.616 287.244 267.96 287.244C268.296 287.244 268.56 287.18 268.752 287.052C268.952 286.924 269.092 286.752 269.172 286.536C269.26 286.312 269.304 286.06 269.304 285.78V279.6H270.312V285.78C270.312 286.532 270.104 287.116 269.688 287.532C269.28 287.94 268.708 288.144 267.972 288.144ZM274.354 288.144C273.89 288.144 273.486 288.056 273.142 287.88C272.798 287.704 272.53 287.436 272.338 287.076C272.146 286.708 272.05 286.252 272.05 285.708V281.688H273.058V285.6C273.058 286.16 273.194 286.58 273.466 286.86C273.746 287.14 274.118 287.28 274.582 287.28C274.902 287.28 275.19 287.208 275.446 287.064C275.702 286.912 275.906 286.692 276.058 286.404C276.218 286.116 276.298 285.764 276.298 285.348V281.688H277.306V288H276.394L276.334 286.992C276.166 287.36 275.906 287.644 275.554 287.844C275.21 288.044 274.81 288.144 274.354 288.144ZM279.012 288V281.688H279.924L279.972 282.684C280.156 282.324 280.42 282.044 280.764 281.844C281.116 281.644 281.52 281.544 281.976 281.544C282.44 281.544 282.844 281.632 283.188 281.808C283.532 281.984 283.8 282.252 283.992 282.612C284.184 282.972 284.28 283.428 284.28 283.98V288H283.272V284.088C283.272 283.528 283.132 283.108 282.852 282.828C282.58 282.548 282.212 282.408 281.748 282.408C281.436 282.408 281.148 282.484 280.884 282.636C280.62 282.78 280.408 282.996 280.248 283.284C280.096 283.572 280.02 283.924 280.02 284.34V288H279.012Z" fill="#7B7B7C"/>
<path d="M314.838 288.144C314.334 288.144 313.898 288.048 313.53 287.856C313.17 287.664 312.89 287.388 312.69 287.028C312.498 286.668 312.402 286.24 312.402 285.744H313.422C313.422 286.024 313.466 286.28 313.554 286.512C313.65 286.736 313.798 286.916 313.998 287.052C314.206 287.18 314.482 287.244 314.826 287.244C315.162 287.244 315.426 287.18 315.618 287.052C315.818 286.924 315.958 286.752 316.038 286.536C316.126 286.312 316.17 286.06 316.17 285.78V279.6H317.178V285.78C317.178 286.532 316.97 287.116 316.554 287.532C316.146 287.94 315.574 288.144 314.838 288.144ZM321.22 288.144C320.756 288.144 320.352 288.056 320.008 287.88C319.664 287.704 319.396 287.436 319.204 287.076C319.012 286.708 318.916 286.252 318.916 285.708V281.688H319.924V285.6C319.924 286.16 320.06 286.58 320.332 286.86C320.612 287.14 320.984 287.28 321.448 287.28C321.768 287.28 322.056 287.208 322.312 287.064C322.568 286.912 322.772 286.692 322.924 286.404C323.084 286.116 323.164 285.764 323.164 285.348V281.688H324.172V288H323.26L323.2 286.992C323.032 287.36 322.772 287.644 322.42 287.844C322.076 288.044 321.676 288.144 321.22 288.144ZM325.877 288V279.36H326.885V288H325.877Z" fill="#7B7B7C"/>
<path d="M354.157 288L357.253 279.6H358.321L361.405 288H360.325L357.781 280.86L355.213 288H354.157ZM355.573 285.84L355.861 285.024H359.665L359.953 285.84H355.573ZM364.757 288.144C364.293 288.144 363.889 288.056 363.545 287.88C363.201 287.704 362.933 287.436 362.741 287.076C362.549 286.708 362.453 286.252 362.453 285.708V281.688H363.461V285.6C363.461 286.16 363.597 286.58 363.869 286.86C364.149 287.14 364.521 287.28 364.985 287.28C365.305 287.28 365.593 287.208 365.849 287.064C366.105 286.912 366.309 286.692 366.461 286.404C366.621 286.116 366.701 285.764 366.701 285.348V281.688H367.709V288H366.797L366.737 286.992C366.569 287.36 366.309 287.644 365.957 287.844C365.613 288.044 365.213 288.144 364.757 288.144ZM371.887 290.784C371.319 290.784 370.819 290.712 370.387 290.568C369.963 290.432 369.631 290.22 369.391 289.932C369.159 289.644 369.043 289.288 369.043 288.864C369.043 288.664 369.079 288.456 369.151 288.24C369.231 288.024 369.363 287.816 369.547 287.616C369.739 287.416 370.007 287.236 370.351 287.076L371.119 287.484C370.663 287.66 370.367 287.864 370.231 288.096C370.095 288.328 370.027 288.552 370.027 288.768C370.027 289.032 370.103 289.252 370.255 289.428C370.415 289.604 370.635 289.736 370.915 289.824C371.195 289.912 371.519 289.956 371.887 289.956C372.247 289.956 372.555 289.908 372.811 289.812C373.075 289.724 373.275 289.592 373.411 289.416C373.555 289.248 373.627 289.048 373.627 288.816C373.627 288.48 373.519 288.216 373.303 288.024C373.087 287.84 372.667 287.732 372.043 287.7C371.555 287.668 371.147 287.624 370.819 287.568C370.491 287.512 370.219 287.448 370.003 287.376C369.795 287.296 369.619 287.208 369.475 287.112C369.339 287.016 369.215 286.916 369.103 286.812V286.536L370.291 285.396L371.239 285.708L369.943 286.776L370.099 286.32C370.187 286.384 370.271 286.444 370.351 286.5C370.431 286.556 370.539 286.608 370.675 286.656C370.819 286.696 371.015 286.736 371.263 286.776C371.519 286.816 371.855 286.852 372.271 286.884C372.847 286.924 373.307 287.02 373.651 287.172C373.995 287.324 374.243 287.536 374.395 287.808C374.547 288.072 374.622 288.396 374.622 288.78C374.622 289.116 374.527 289.436 374.335 289.74C374.151 290.044 373.855 290.292 373.447 290.484C373.047 290.684 372.527 290.784 371.887 290.784ZM371.875 286.032C371.363 286.032 370.927 285.936 370.567 285.744C370.215 285.544 369.947 285.276 369.763 284.94C369.579 284.596 369.487 284.212 369.487 283.788C369.487 283.364 369.579 282.984 369.763 282.648C369.955 282.312 370.227 282.044 370.579 281.844C370.939 281.644 371.371 281.544 371.875 281.544C372.395 281.544 372.831 281.644 373.183 281.844C373.535 282.044 373.803 282.312 373.987 282.648C374.171 282.984 374.263 283.364 374.263 283.788C374.263 284.212 374.171 284.596 373.987 284.94C373.803 285.276 373.535 285.544 373.183 285.744C372.831 285.936 372.395 286.032 371.875 286.032ZM371.875 285.204C372.323 285.204 372.671 285.088 372.919 284.856C373.167 284.616 373.291 284.26 373.291 283.788C373.291 283.316 373.167 282.964 372.919 282.732C372.671 282.5 372.323 282.384 371.875 282.384C371.451 282.384 371.103 282.5 370.831 282.732C370.567 282.964 370.435 283.316 370.435 283.788C370.435 284.26 370.563 284.616 370.819 284.856C371.083 285.088 371.435 285.204 371.875 285.204ZM372.931 282.54L372.631 281.688H375.103V282.444L372.931 282.54Z" fill="#7B7B7C"/>
<path d="M402.341 288.144C401.725 288.144 401.189 288.032 400.733 287.808C400.277 287.584 399.925 287.272 399.677 286.872C399.429 286.472 399.305 286.008 399.305 285.48H400.361C400.361 285.808 400.437 286.112 400.589 286.392C400.741 286.664 400.961 286.884 401.249 287.052C401.545 287.212 401.909 287.292 402.341 287.292C402.717 287.292 403.037 287.232 403.301 287.112C403.573 286.984 403.777 286.812 403.913 286.596C404.057 286.38 404.129 286.136 404.129 285.864C404.129 285.56 404.061 285.308 403.925 285.108C403.797 284.9 403.617 284.732 403.385 284.604C403.153 284.468 402.885 284.348 402.581 284.244C402.277 284.14 401.949 284.032 401.597 283.92C400.893 283.696 400.381 283.416 400.061 283.08C399.749 282.736 399.593 282.296 399.593 281.76C399.593 281.304 399.697 280.904 399.905 280.56C400.121 280.216 400.425 279.948 400.817 279.756C401.217 279.556 401.689 279.456 402.233 279.456C402.769 279.456 403.233 279.556 403.625 279.756C404.025 279.956 404.337 280.232 404.561 280.584C404.785 280.928 404.897 281.328 404.897 281.784H403.841C403.841 281.552 403.781 281.324 403.661 281.1C403.541 280.876 403.357 280.692 403.109 280.548C402.869 280.396 402.565 280.32 402.197 280.32C401.893 280.312 401.621 280.364 401.381 280.476C401.149 280.58 400.965 280.732 400.829 280.932C400.701 281.132 400.637 281.376 400.637 281.664C400.637 281.936 400.693 282.156 400.805 282.324C400.925 282.492 401.093 282.636 401.309 282.756C401.533 282.868 401.793 282.972 402.089 283.068C402.385 283.164 402.713 283.272 403.073 283.392C403.481 283.528 403.841 283.696 404.153 283.896C404.473 284.088 404.721 284.336 404.897 284.64C405.081 284.944 405.173 285.332 405.173 285.804C405.173 286.204 405.065 286.584 404.849 286.944C404.641 287.296 404.329 287.584 403.913 287.808C403.497 288.032 402.973 288.144 402.341 288.144ZM409.228 288.144C408.668 288.144 408.172 288.008 407.74 287.736C407.308 287.464 406.968 287.08 406.72 286.584C406.48 286.088 406.36 285.508 406.36 284.844C406.36 284.18 406.48 283.6 406.72 283.104C406.968 282.608 407.308 282.224 407.74 281.952C408.18 281.68 408.684 281.544 409.252 281.544C409.86 281.544 410.368 281.68 410.776 281.952C411.184 282.224 411.492 282.588 411.7 283.044C411.908 283.5 412.012 284 412.012 284.544C412.012 284.624 412.012 284.704 412.012 284.784C412.012 284.864 412.008 284.96 412 285.072H407.116V284.292H411.028C411.012 283.676 410.832 283.208 410.488 282.888C410.152 282.56 409.732 282.396 409.228 282.396C408.892 282.396 408.58 282.48 408.292 282.648C408.012 282.808 407.784 283.048 407.608 283.368C407.432 283.688 407.344 284.088 407.344 284.568V284.904C407.344 285.432 407.432 285.876 407.608 286.236C407.784 286.588 408.012 286.852 408.292 287.028C408.58 287.204 408.892 287.292 409.228 287.292C409.676 287.292 410.028 287.208 410.284 287.04C410.54 286.864 410.728 286.616 410.848 286.296H411.844C411.748 286.648 411.58 286.964 411.34 287.244C411.108 287.524 410.812 287.744 410.452 287.904C410.1 288.064 409.692 288.144 409.228 288.144ZM413.409 290.64V281.688H414.321L414.405 282.672C414.533 282.464 414.693 282.276 414.885 282.108C415.085 281.94 415.321 281.804 415.593 281.7C415.873 281.596 416.193 281.544 416.553 281.544C417.121 281.544 417.617 281.688 418.041 281.976C418.473 282.264 418.809 282.656 419.049 283.152C419.289 283.648 419.409 284.216 419.409 284.856C419.409 285.488 419.289 286.052 419.049 286.548C418.809 287.044 418.473 287.436 418.041 287.724C417.609 288.004 417.109 288.144 416.541 288.144C416.053 288.144 415.625 288.044 415.257 287.844C414.889 287.644 414.609 287.364 414.417 287.004V290.64H413.409ZM416.421 287.268C416.797 287.268 417.129 287.172 417.417 286.98C417.713 286.78 417.945 286.5 418.113 286.14C418.289 285.772 418.377 285.34 418.377 284.844C418.377 284.348 418.289 283.92 418.113 283.56C417.945 283.192 417.713 282.912 417.417 282.72C417.129 282.52 416.797 282.42 416.421 282.42C416.021 282.42 415.673 282.52 415.377 282.72C415.081 282.912 414.853 283.192 414.693 283.56C414.533 283.92 414.453 284.348 414.453 284.844C414.453 285.34 414.533 285.772 414.693 286.14C414.853 286.5 415.081 286.78 415.377 286.98C415.673 287.172 416.021 287.268 416.421 287.268Z" fill="#7B7B7C"/>
<path d="M448.306 288.144C447.538 288.144 446.862 287.964 446.278 287.604C445.694 287.236 445.238 286.728 444.91 286.08C444.582 285.424 444.418 284.664 444.418 283.8C444.418 282.944 444.582 282.192 444.91 281.544C445.238 280.888 445.694 280.376 446.278 280.008C446.862 279.64 447.538 279.456 448.306 279.456C449.09 279.456 449.774 279.64 450.358 280.008C450.942 280.376 451.394 280.888 451.714 281.544C452.034 282.192 452.194 282.944 452.194 283.8C452.194 284.664 452.034 285.424 451.714 286.08C451.394 286.728 450.942 287.236 450.358 287.604C449.774 287.964 449.09 288.144 448.306 288.144ZM448.306 287.256C448.882 287.256 449.382 287.12 449.806 286.848C450.238 286.568 450.57 286.172 450.802 285.66C451.042 285.14 451.162 284.52 451.162 283.8C451.162 283.08 451.042 282.464 450.802 281.952C450.57 281.432 450.238 281.036 449.806 280.764C449.382 280.492 448.882 280.356 448.306 280.356C447.738 280.356 447.238 280.492 446.806 280.764C446.382 281.036 446.05 281.432 445.81 281.952C445.57 282.464 445.45 283.08 445.45 283.8C445.45 284.52 445.57 285.14 445.81 285.66C446.05 286.172 446.382 286.568 446.806 286.848C447.238 287.12 447.738 287.256 448.306 287.256ZM456.359 288.144C455.783 288.144 455.271 288.008 454.823 287.736C454.375 287.456 454.023 287.068 453.767 286.572C453.511 286.076 453.383 285.5 453.383 284.844C453.383 284.18 453.511 283.604 453.767 283.116C454.023 282.62 454.375 282.236 454.823 281.964C455.271 281.684 455.783 281.544 456.359 281.544C457.079 281.544 457.679 281.736 458.159 282.12C458.647 282.504 458.959 283.02 459.095 283.668H458.063C457.975 283.268 457.771 282.96 457.451 282.744C457.139 282.52 456.771 282.408 456.347 282.408C455.979 282.408 455.647 282.5 455.351 282.684C455.063 282.868 454.835 283.14 454.667 283.5C454.499 283.86 454.415 284.308 454.415 284.844C454.415 285.244 454.463 285.6 454.559 285.912C454.655 286.216 454.787 286.472 454.955 286.68C455.131 286.88 455.335 287.032 455.567 287.136C455.807 287.24 456.067 287.292 456.347 287.292C456.635 287.292 456.895 287.244 457.127 287.148C457.367 287.044 457.567 286.896 457.727 286.704C457.895 286.512 458.007 286.284 458.063 286.02H459.095C458.967 286.652 458.655 287.164 458.159 287.556C457.671 287.948 457.071 288.144 456.359 288.144ZM462.845 288C462.485 288 462.173 287.944 461.909 287.832C461.645 287.72 461.441 287.532 461.297 287.268C461.161 286.996 461.093 286.632 461.093 286.176V282.54H459.989V281.688H461.093L461.225 280.116H462.101V281.688H463.889V282.54H462.101V286.176C462.101 286.552 462.177 286.808 462.329 286.944C462.481 287.072 462.749 287.136 463.133 287.136H463.865V288H462.845Z" fill="#7B7B7C"/>
<path d="M488.936 288V279.6H489.944L494.42 286.344V279.6H495.428V288H494.42L489.944 281.256V288H488.936ZM499.919 288.144C499.335 288.144 498.819 288.008 498.371 287.736C497.923 287.464 497.575 287.08 497.327 286.584C497.079 286.088 496.955 285.508 496.955 284.844C496.955 284.172 497.079 283.592 497.327 283.104C497.583 282.608 497.935 282.224 498.383 281.952C498.839 281.68 499.359 281.544 499.943 281.544C500.535 281.544 501.051 281.68 501.491 281.952C501.939 282.224 502.287 282.608 502.535 283.104C502.783 283.592 502.907 284.172 502.907 284.844C502.907 285.508 502.779 286.088 502.523 286.584C502.275 287.08 501.927 287.464 501.479 287.736C501.031 288.008 500.511 288.144 499.919 288.144ZM499.919 287.28C500.287 287.28 500.619 287.192 500.915 287.016C501.211 286.832 501.443 286.56 501.611 286.2C501.787 285.832 501.875 285.38 501.875 284.844C501.875 284.3 501.791 283.848 501.623 283.488C501.455 283.128 501.223 282.86 500.927 282.684C500.639 282.5 500.311 282.408 499.943 282.408C499.583 282.408 499.255 282.5 498.959 282.684C498.663 282.86 498.427 283.128 498.251 283.488C498.075 283.848 497.987 284.3 497.987 284.844C497.987 285.38 498.071 285.832 498.239 286.2C498.415 286.56 498.647 286.832 498.935 287.016C499.231 287.192 499.559 287.28 499.919 287.28ZM505.899 288L503.499 281.688H504.567L506.487 287.028L508.419 281.688H509.451L507.063 288H505.899Z" fill="#7B7B7C"/>
<path d="M533.703 288V279.6H535.863C536.839 279.6 537.643 279.772 538.275 280.116C538.915 280.452 539.387 280.936 539.691 281.568C540.003 282.192 540.159 282.944 540.159 283.824C540.159 284.688 540.003 285.432 539.691 286.056C539.387 286.68 538.915 287.16 538.275 287.496C537.643 287.832 536.839 288 535.863 288H533.703ZM534.711 287.16H535.839C536.647 287.16 537.291 287.028 537.771 286.764C538.251 286.492 538.595 286.108 538.803 285.612C539.011 285.108 539.115 284.512 539.115 283.824C539.115 283.12 539.011 282.516 538.803 282.012C538.595 281.508 538.251 281.12 537.771 280.848C537.291 280.576 536.647 280.44 535.839 280.44H534.711V287.16ZM544.216 288.144C543.656 288.144 543.16 288.008 542.728 287.736C542.296 287.464 541.956 287.08 541.708 286.584C541.468 286.088 541.348 285.508 541.348 284.844C541.348 284.18 541.468 283.6 541.708 283.104C541.956 282.608 542.296 282.224 542.728 281.952C543.168 281.68 543.672 281.544 544.24 281.544C544.848 281.544 545.356 281.68 545.764 281.952C546.172 282.224 546.48 282.588 546.688 283.044C546.896 283.5 547 284 547 284.544C547 284.624 547 284.704 547 284.784C547 284.864 546.996 284.96 546.988 285.072H542.104V284.292H546.016C546 283.676 545.82 283.208 545.476 282.888C545.14 282.56 544.72 282.396 544.216 282.396C543.88 282.396 543.568 282.48 543.28 282.648C543 282.808 542.772 283.048 542.596 283.368C542.42 283.688 542.332 284.088 542.332 284.568V284.904C542.332 285.432 542.42 285.876 542.596 286.236C542.772 286.588 543 286.852 543.28 287.028C543.568 287.204 543.88 287.292 544.216 287.292C544.664 287.292 545.016 287.208 545.272 287.04C545.528 286.864 545.716 286.616 545.836 286.296H546.832C546.736 286.648 546.568 286.964 546.328 287.244C546.096 287.524 545.8 287.744 545.44 287.904C545.088 288.064 544.68 288.144 544.216 288.144ZM551.121 288.144C550.545 288.144 550.033 288.008 549.585 287.736C549.137 287.456 548.785 287.068 548.529 286.572C548.273 286.076 548.145 285.5 548.145 284.844C548.145 284.18 548.273 283.604 548.529 283.116C548.785 282.62 549.137 282.236 549.585 281.964C550.033 281.684 550.545 281.544 551.121 281.544C551.841 281.544 552.441 281.736 552.921 282.12C553.409 282.504 553.721 283.02 553.857 283.668H552.825C552.737 283.268 552.533 282.96 552.213 282.744C551.901 282.52 551.533 282.408 551.109 282.408C550.741 282.408 550.409 282.5 550.113 282.684C549.825 282.868 549.597 283.14 549.429 283.5C549.261 283.86 549.177 284.308 549.177 284.844C549.177 285.244 549.225 285.6 549.321 285.912C549.417 286.216 549.549 286.472 549.717 286.68C549.893 286.88 550.097 287.032 550.329 287.136C550.569 287.24 550.829 287.292 551.109 287.292C551.397 287.292 551.657 287.244 551.889 287.148C552.129 287.044 552.329 286.896 552.489 286.704C552.657 286.512 552.769 286.284 552.825 286.02H553.857C553.729 286.652 553.417 287.164 552.921 287.556C552.433 287.948 551.833 288.144 551.121 288.144Z" fill="#7B7B7C"/>
<rect x="220" y="344" width="16" height="2" fill="#7086FD"/>
<circle opacity="0.25" cx="228" cy="345" r="8" fill="#7086FD"/>
<circle cx="228" cy="345" r="3.5" fill="#7086FD" stroke="white"/>
<path d="M240.78 349V348.292C241.372 347.844 241.932 347.392 242.46 346.936C242.988 346.48 243.456 346.028 243.864 345.58C244.272 345.124 244.592 344.68 244.824 344.248C245.056 343.816 245.172 343.4 245.172 343C245.172 342.704 245.116 342.432 245.004 342.184C244.9 341.928 244.728 341.72 244.488 341.56C244.256 341.4 243.94 341.32 243.54 341.32C243.156 341.32 242.836 341.404 242.58 341.572C242.324 341.732 242.132 341.948 242.004 342.22C241.876 342.484 241.812 342.776 241.812 343.096H240.84C240.848 342.544 240.968 342.072 241.2 341.68C241.432 341.28 241.752 340.976 242.16 340.768C242.568 340.56 243.032 340.456 243.552 340.456C244.064 340.456 244.516 340.552 244.908 340.744C245.3 340.928 245.608 341.208 245.832 341.584C246.064 341.952 246.18 342.412 246.18 342.964C246.18 343.356 246.096 343.748 245.928 344.14C245.768 344.532 245.548 344.916 245.268 345.292C244.988 345.66 244.676 346.016 244.332 346.36C243.996 346.704 243.648 347.028 243.288 347.332C242.928 347.636 242.588 347.912 242.268 348.16H246.468V349H240.78ZM250.897 349.144C250.201 349.144 249.601 348.964 249.097 348.604C248.601 348.236 248.217 347.728 247.945 347.08C247.673 346.424 247.537 345.664 247.537 344.8C247.537 343.936 247.673 343.18 247.945 342.532C248.217 341.876 248.601 341.368 249.097 341.008C249.601 340.64 250.201 340.456 250.897 340.456C251.593 340.456 252.189 340.64 252.685 341.008C253.181 341.368 253.561 341.876 253.825 342.532C254.097 343.18 254.233 343.936 254.233 344.8C254.233 345.664 254.097 346.424 253.825 347.08C253.561 347.728 253.181 348.236 252.685 348.604C252.189 348.964 251.593 349.144 250.897 349.144ZM250.897 348.256C251.337 348.256 251.729 348.12 252.073 347.848C252.417 347.568 252.689 347.172 252.889 346.66C253.097 346.14 253.201 345.52 253.201 344.8C253.201 344.072 253.097 343.452 252.889 342.94C252.689 342.428 252.417 342.036 252.073 341.764C251.729 341.492 251.337 341.356 250.897 341.356C250.449 341.356 250.049 341.492 249.697 341.764C249.345 342.036 249.069 342.428 248.869 342.94C248.669 343.452 248.569 344.072 248.569 344.8C248.569 345.52 248.669 346.14 248.869 346.66C249.069 347.172 249.345 347.568 249.697 347.848C250.049 348.12 250.449 348.256 250.897 348.256ZM255.487 349V348.292C256.079 347.844 256.639 347.392 257.167 346.936C257.695 346.48 258.163 346.028 258.571 345.58C258.979 345.124 259.299 344.68 259.531 344.248C259.763 343.816 259.879 343.4 259.879 343C259.879 342.704 259.823 342.432 259.711 342.184C259.607 341.928 259.435 341.72 259.195 341.56C258.963 341.4 258.647 341.32 258.247 341.32C257.863 341.32 257.543 341.404 257.287 341.572C257.031 341.732 256.839 341.948 256.711 342.22C256.583 342.484 256.519 342.776 256.519 343.096H255.547C255.555 342.544 255.675 342.072 255.907 341.68C256.139 341.28 256.459 340.976 256.867 340.768C257.275 340.56 257.739 340.456 258.259 340.456C258.771 340.456 259.223 340.552 259.615 340.744C260.007 340.928 260.315 341.208 260.539 341.584C260.771 341.952 260.887 342.412 260.887 342.964C260.887 343.356 260.803 343.748 260.635 344.14C260.475 344.532 260.255 344.916 259.975 345.292C259.695 345.66 259.383 346.016 259.039 346.36C258.703 346.704 258.355 347.028 257.995 347.332C257.635 347.636 257.295 347.912 256.975 348.16H261.175V349H255.487ZM265.337 349.144C264.801 349.144 264.313 349.048 263.873 348.856C263.441 348.656 263.097 348.36 262.841 347.968C262.585 347.576 262.449 347.088 262.433 346.504H263.453C263.461 346.824 263.537 347.12 263.681 347.392C263.833 347.656 264.049 347.868 264.329 348.028C264.609 348.188 264.945 348.268 265.337 348.268C265.729 348.268 266.057 348.192 266.321 348.04C266.585 347.888 266.785 347.688 266.921 347.44C267.057 347.184 267.125 346.9 267.125 346.588C267.125 346.212 267.029 345.908 266.837 345.676C266.653 345.436 266.401 345.26 266.081 345.148C265.769 345.028 265.425 344.968 265.049 344.968H264.425V344.116H265.049C265.617 344.116 266.061 343.988 266.381 343.732C266.709 343.468 266.873 343.104 266.873 342.64C266.873 342.264 266.745 341.952 266.489 341.704C266.233 341.456 265.849 341.332 265.337 341.332C264.833 341.332 264.437 341.468 264.149 341.74C263.861 342.012 263.697 342.36 263.657 342.784H262.637C262.661 342.328 262.785 341.924 263.009 341.572C263.241 341.22 263.553 340.948 263.945 340.756C264.345 340.556 264.809 340.456 265.337 340.456C265.897 340.456 266.365 340.552 266.741 340.744C267.125 340.936 267.413 341.192 267.605 341.512C267.797 341.832 267.893 342.188 267.893 342.58C267.893 342.868 267.837 343.144 267.725 343.408C267.621 343.672 267.461 343.9 267.245 344.092C267.029 344.284 266.753 344.42 266.417 344.5C266.745 344.564 267.037 344.688 267.293 344.872C267.557 345.056 267.765 345.292 267.917 345.58C268.069 345.868 268.145 346.204 268.145 346.588C268.145 347.044 268.037 347.468 267.821 347.86C267.613 348.244 267.301 348.556 266.885 348.796C266.469 349.028 265.953 349.144 265.337 349.144Z" fill="#7B7B7C"/>
<rect x="297" y="344" width="16" height="2" fill="#6FD195"/>
<circle opacity="0.25" cx="305" cy="345" r="8" fill="#6FD195"/>
<circle cx="305" cy="345" r="3.5" fill="#6FD195" stroke="white"/>
<path d="M317.78 349V348.292C318.372 347.844 318.932 347.392 319.46 346.936C319.988 346.48 320.456 346.028 320.864 345.58C321.272 345.124 321.592 344.68 321.824 344.248C322.056 343.816 322.172 343.4 322.172 343C322.172 342.704 322.116 342.432 322.004 342.184C321.9 341.928 321.728 341.72 321.488 341.56C321.256 341.4 320.94 341.32 320.54 341.32C320.156 341.32 319.836 341.404 319.58 341.572C319.324 341.732 319.132 341.948 319.004 342.22C318.876 342.484 318.812 342.776 318.812 343.096H317.84C317.848 342.544 317.968 342.072 318.2 341.68C318.432 341.28 318.752 340.976 319.16 340.768C319.568 340.56 320.032 340.456 320.552 340.456C321.064 340.456 321.516 340.552 321.908 340.744C322.3 340.928 322.608 341.208 322.832 341.584C323.064 341.952 323.18 342.412 323.18 342.964C323.18 343.356 323.096 343.748 322.928 344.14C322.768 344.532 322.548 344.916 322.268 345.292C321.988 345.66 321.676 346.016 321.332 346.36C320.996 346.704 320.648 347.028 320.288 347.332C319.928 347.636 319.588 347.912 319.268 348.16H323.468V349H317.78ZM327.897 349.144C327.201 349.144 326.601 348.964 326.097 348.604C325.601 348.236 325.217 347.728 324.945 347.08C324.673 346.424 324.537 345.664 324.537 344.8C324.537 343.936 324.673 343.18 324.945 342.532C325.217 341.876 325.601 341.368 326.097 341.008C326.601 340.64 327.201 340.456 327.897 340.456C328.593 340.456 329.189 340.64 329.685 341.008C330.181 341.368 330.561 341.876 330.825 342.532C331.097 343.18 331.233 343.936 331.233 344.8C331.233 345.664 331.097 346.424 330.825 347.08C330.561 347.728 330.181 348.236 329.685 348.604C329.189 348.964 328.593 349.144 327.897 349.144ZM327.897 348.256C328.337 348.256 328.729 348.12 329.073 347.848C329.417 347.568 329.689 347.172 329.889 346.66C330.097 346.14 330.201 345.52 330.201 344.8C330.201 344.072 330.097 343.452 329.889 342.94C329.689 342.428 329.417 342.036 329.073 341.764C328.729 341.492 328.337 341.356 327.897 341.356C327.449 341.356 327.049 341.492 326.697 341.764C326.345 342.036 326.069 342.428 325.869 342.94C325.669 343.452 325.569 344.072 325.569 344.8C325.569 345.52 325.669 346.14 325.869 346.66C326.069 347.172 326.345 347.568 326.697 347.848C327.049 348.12 327.449 348.256 327.897 348.256ZM332.487 349V348.292C333.079 347.844 333.639 347.392 334.167 346.936C334.695 346.48 335.163 346.028 335.571 345.58C335.979 345.124 336.299 344.68 336.531 344.248C336.763 343.816 336.879 343.4 336.879 343C336.879 342.704 336.823 342.432 336.711 342.184C336.607 341.928 336.435 341.72 336.195 341.56C335.963 341.4 335.647 341.32 335.247 341.32C334.863 341.32 334.543 341.404 334.287 341.572C334.031 341.732 333.839 341.948 333.711 342.22C333.583 342.484 333.519 342.776 333.519 343.096H332.547C332.555 342.544 332.675 342.072 332.907 341.68C333.139 341.28 333.459 340.976 333.867 340.768C334.275 340.56 334.739 340.456 335.259 340.456C335.771 340.456 336.223 340.552 336.615 340.744C337.007 340.928 337.315 341.208 337.539 341.584C337.771 341.952 337.887 342.412 337.887 342.964C337.887 343.356 337.803 343.748 337.635 344.14C337.475 344.532 337.255 344.916 336.975 345.292C336.695 345.66 336.383 346.016 336.039 346.36C335.703 346.704 335.355 347.028 334.995 347.332C334.635 347.636 334.295 347.912 333.975 348.16H338.175V349H332.487ZM343.326 349V347.2H339.066V346.42L343.146 340.6H344.322V346.312H345.57V347.2H344.322V349H343.326ZM340.182 346.312H343.374V341.716L340.182 346.312Z" fill="#7B7B7C"/>
</svg>
