<svg width="395" height="310" viewBox="0 0 395 310" fill="none" xmlns="http://www.w3.org/2000/svg">
<path d="M172.022 17V7.2H173.674L176.992 13.822L180.296 7.2H181.962V17H180.562V9.65L177.524 15.628H176.446L173.422 9.664V17H172.022ZM186.267 17.168C185.688 17.168 185.207 17.07 184.825 16.874C184.442 16.678 184.157 16.4167 183.971 16.09C183.784 15.754 183.691 15.3947 183.691 15.012C183.691 14.5453 183.812 14.1487 184.055 13.822C184.297 13.486 184.643 13.2293 185.091 13.052C185.539 12.8747 186.075 12.786 186.701 12.786H188.535C188.535 12.3753 188.474 12.0347 188.353 11.764C188.231 11.4933 188.049 11.2927 187.807 11.162C187.573 11.022 187.275 10.952 186.911 10.952C186.491 10.952 186.131 11.0547 185.833 11.26C185.534 11.456 185.347 11.75 185.273 12.142H183.873C183.929 11.6473 184.097 11.2273 184.377 10.882C184.666 10.5273 185.035 10.2567 185.483 10.07C185.931 9.874 186.407 9.776 186.911 9.776C187.573 9.776 188.129 9.89267 188.577 10.126C189.025 10.3593 189.361 10.6907 189.585 11.12C189.818 11.54 189.935 12.044 189.935 12.632V17H188.717L188.605 15.81C188.502 15.9967 188.381 16.174 188.241 16.342C188.101 16.51 187.933 16.6547 187.737 16.776C187.55 16.8973 187.331 16.9907 187.079 17.056C186.836 17.1307 186.565 17.168 186.267 17.168ZM186.533 16.034C186.831 16.034 187.102 15.9733 187.345 15.852C187.587 15.7307 187.793 15.5673 187.961 15.362C188.138 15.1473 188.269 14.9093 188.353 14.648C188.446 14.3773 188.497 14.102 188.507 13.822V13.78H186.841C186.439 13.78 186.113 13.8313 185.861 13.934C185.618 14.0273 185.441 14.158 185.329 14.326C185.217 14.494 185.161 14.69 185.161 14.914C185.161 15.1473 185.212 15.348 185.315 15.516C185.427 15.6747 185.585 15.8007 185.791 15.894C185.996 15.9873 186.243 16.034 186.533 16.034ZM191.722 17V9.944H192.982L193.108 11.274C193.266 10.9567 193.472 10.6907 193.724 10.476C193.976 10.252 194.27 10.0793 194.606 9.958C194.951 9.83667 195.343 9.776 195.782 9.776V11.26H195.278C194.988 11.26 194.713 11.2973 194.452 11.372C194.19 11.4373 193.957 11.554 193.752 11.722C193.556 11.89 193.402 12.1187 193.29 12.408C193.178 12.6973 193.122 13.0567 193.122 13.486V17H191.722ZM201.505 17L198.257 13.136L201.197 9.944H202.891L199.391 13.682V12.632L203.269 17H201.505ZM197.067 17V6.92H198.467V17H197.067ZM207.109 17.168C206.437 17.168 205.84 17.014 205.317 16.706C204.794 16.398 204.384 15.9687 204.085 15.418C203.796 14.8673 203.651 14.228 203.651 13.5C203.651 12.7533 203.796 12.1047 204.085 11.554C204.384 10.994 204.794 10.56 205.317 10.252C205.84 9.93467 206.446 9.776 207.137 9.776C207.828 9.776 208.42 9.93 208.915 10.238C209.41 10.546 209.792 10.9567 210.063 11.47C210.334 11.974 210.469 12.534 210.469 13.15C210.469 13.2433 210.464 13.346 210.455 13.458C210.455 13.5607 210.45 13.6773 210.441 13.808H204.673V12.814H209.069C209.041 12.226 208.845 11.7687 208.481 11.442C208.117 11.106 207.664 10.938 207.123 10.938C206.74 10.938 206.39 11.0267 206.073 11.204C205.756 11.372 205.499 11.624 205.303 11.96C205.116 12.2867 205.023 12.702 205.023 13.206V13.598C205.023 14.1207 205.116 14.564 205.303 14.928C205.499 15.2827 205.756 15.5533 206.073 15.74C206.39 15.9173 206.736 16.006 207.109 16.006C207.557 16.006 207.926 15.908 208.215 15.712C208.504 15.516 208.719 15.25 208.859 14.914H210.259C210.138 15.3433 209.932 15.7307 209.643 16.076C209.354 16.412 208.994 16.678 208.565 16.874C208.145 17.07 207.66 17.168 207.109 17.168ZM214.745 17C214.297 17 213.91 16.93 213.583 16.79C213.256 16.65 213.004 16.4167 212.827 16.09C212.65 15.7633 212.561 15.32 212.561 14.76V11.134H211.343V9.944H212.561L212.729 8.18H213.961V9.944H215.963V11.134H213.961V14.774C213.961 15.1753 214.045 15.4507 214.213 15.6C214.381 15.74 214.67 15.81 215.081 15.81H215.893V17H214.745ZM225.457 17.168C224.495 17.168 223.665 16.958 222.965 16.538C222.274 16.1087 221.737 15.516 221.355 14.76C220.981 13.9947 220.795 13.108 220.795 12.1C220.795 11.1013 220.981 10.2193 221.355 9.454C221.737 8.68867 222.274 8.096 222.965 7.676C223.665 7.24667 224.495 7.032 225.457 7.032C226.605 7.032 227.533 7.30733 228.243 7.858C228.961 8.40867 229.419 9.18333 229.615 10.182H228.075C227.935 9.60333 227.645 9.14133 227.207 8.796C226.777 8.45067 226.194 8.278 225.457 8.278C224.794 8.278 224.22 8.432 223.735 8.74C223.249 9.048 222.876 9.48667 222.615 10.056C222.353 10.6253 222.223 11.3067 222.223 12.1C222.223 12.8933 222.353 13.5793 222.615 14.158C222.876 14.7273 223.249 15.166 223.735 15.474C224.22 15.7727 224.794 15.922 225.457 15.922C226.194 15.922 226.777 15.7587 227.207 15.432C227.645 15.096 227.935 14.6433 228.075 14.074H229.615C229.419 15.0447 228.961 15.8053 228.243 16.356C227.533 16.8973 226.605 17.168 225.457 17.168ZM233.558 17.168C232.979 17.168 232.498 17.07 232.116 16.874C231.733 16.678 231.448 16.4167 231.262 16.09C231.075 15.754 230.982 15.3947 230.982 15.012C230.982 14.5453 231.103 14.1487 231.346 13.822C231.588 13.486 231.934 13.2293 232.382 13.052C232.83 12.8747 233.366 12.786 233.992 12.786H235.826C235.826 12.3753 235.765 12.0347 235.644 11.764C235.522 11.4933 235.34 11.2927 235.098 11.162C234.864 11.022 234.566 10.952 234.202 10.952C233.782 10.952 233.422 11.0547 233.124 11.26C232.825 11.456 232.638 11.75 232.564 12.142H231.164C231.22 11.6473 231.388 11.2273 231.668 10.882C231.957 10.5273 232.326 10.2567 232.774 10.07C233.222 9.874 233.698 9.776 234.202 9.776C234.864 9.776 235.42 9.89267 235.868 10.126C236.316 10.3593 236.652 10.6907 236.876 11.12C237.109 11.54 237.226 12.044 237.226 12.632V17H236.008L235.896 15.81C235.793 15.9967 235.672 16.174 235.532 16.342C235.392 16.51 235.224 16.6547 235.028 16.776C234.841 16.8973 234.622 16.9907 234.37 17.056C234.127 17.1307 233.856 17.168 233.558 17.168ZM233.824 16.034C234.122 16.034 234.393 15.9733 234.636 15.852C234.878 15.7307 235.084 15.5673 235.252 15.362C235.429 15.1473 235.56 14.9093 235.644 14.648C235.737 14.3773 235.788 14.102 235.798 13.822V13.78H234.132C233.73 13.78 233.404 13.8313 233.152 13.934C232.909 14.0273 232.732 14.158 232.62 14.326C232.508 14.494 232.452 14.69 232.452 14.914C232.452 15.1473 232.503 15.348 232.606 15.516C232.718 15.6747 232.876 15.8007 233.082 15.894C233.287 15.9873 233.534 16.034 233.824 16.034ZM239.013 20.08V9.944H240.273L240.413 11.036C240.562 10.8213 240.749 10.6207 240.973 10.434C241.197 10.238 241.463 10.0793 241.771 9.958C242.088 9.83667 242.457 9.776 242.877 9.776C243.549 9.776 244.137 9.93933 244.641 10.266C245.154 10.5927 245.551 11.036 245.831 11.596C246.12 12.1467 246.265 12.7767 246.265 13.486C246.265 14.1953 246.12 14.83 245.831 15.39C245.541 15.9407 245.14 16.3747 244.627 16.692C244.123 17.0093 243.535 17.168 242.863 17.168C242.312 17.168 241.827 17.0607 241.407 16.846C240.987 16.622 240.655 16.314 240.413 15.922V20.08H239.013ZM242.639 15.95C243.068 15.95 243.446 15.8473 243.773 15.642C244.109 15.4367 244.37 15.1473 244.557 14.774C244.753 14.4007 244.851 13.9667 244.851 13.472C244.851 12.9773 244.753 12.548 244.557 12.184C244.37 11.8107 244.109 11.5213 243.773 11.316C243.446 11.1013 243.068 10.994 242.639 10.994C242.2 10.994 241.813 11.1013 241.477 11.316C241.15 11.5213 240.893 11.8107 240.707 12.184C240.52 12.548 240.427 12.9773 240.427 13.472C240.427 13.9667 240.52 14.4007 240.707 14.774C240.893 15.1473 241.15 15.4367 241.477 15.642C241.813 15.8473 242.2 15.95 242.639 15.95Z" fill="#7B7B7C"/>
<path d="M51.252 257V247.2H52.652V257H51.252ZM45.022 257V247.2H46.422V257H45.022ZM46.184 252.576V251.428H51.56V252.576H46.184ZM57.8517 257.168C57.189 257.168 56.5917 257.014 56.0597 256.706C55.537 256.398 55.1217 255.969 54.8137 255.418C54.515 254.858 54.3657 254.214 54.3657 253.486C54.3657 252.739 54.5197 252.091 54.8277 251.54C55.1357 250.98 55.5557 250.546 56.0877 250.238C56.6197 249.93 57.217 249.776 57.8797 249.776C58.5517 249.776 59.149 249.93 59.6717 250.238C60.1944 250.546 60.605 250.975 60.9037 251.526C61.2117 252.077 61.3657 252.725 61.3657 253.472C61.3657 254.219 61.2117 254.867 60.9037 255.418C60.605 255.969 60.1897 256.398 59.6577 256.706C59.1257 257.014 58.5237 257.168 57.8517 257.168ZM57.8517 255.964C58.2344 255.964 58.5797 255.871 58.8877 255.684C59.205 255.497 59.457 255.222 59.6437 254.858C59.8397 254.485 59.9377 254.023 59.9377 253.472C59.9377 252.921 59.8444 252.464 59.6577 252.1C59.471 251.727 59.219 251.447 58.9017 251.26C58.5937 251.073 58.253 250.98 57.8797 250.98C57.5064 250.98 57.161 251.073 56.8437 251.26C56.5264 251.447 56.2697 251.727 56.0737 252.1C55.887 252.464 55.7937 252.921 55.7937 253.472C55.7937 254.023 55.887 254.485 56.0737 254.858C56.2697 255.222 56.5217 255.497 56.8297 255.684C57.147 255.871 57.4877 255.964 57.8517 255.964ZM63.0125 257V246.92H64.4125V257H63.0125ZM69.4708 257.168C68.7988 257.168 68.2061 257.009 67.6928 256.692C67.1795 256.365 66.7781 255.927 66.4888 255.376C66.2088 254.816 66.0688 254.181 66.0688 253.472C66.0688 252.753 66.2088 252.119 66.4888 251.568C66.7781 251.017 67.1795 250.583 67.6928 250.266C68.2155 249.939 68.8128 249.776 69.4848 249.776C70.0355 249.776 70.5208 249.888 70.9408 250.112C71.3608 250.327 71.6875 250.635 71.9208 251.036V246.92H73.3208V257H72.0608L71.9208 255.908C71.7808 256.123 71.5988 256.328 71.3748 256.524C71.1508 256.711 70.8801 256.865 70.5628 256.986C70.2455 257.107 69.8815 257.168 69.4708 257.168ZM69.6948 255.95C70.1335 255.95 70.5208 255.847 70.8568 255.642C71.1928 255.437 71.4495 255.147 71.6268 254.774C71.8135 254.401 71.9068 253.967 71.9068 253.472C71.9068 252.977 71.8135 252.548 71.6268 252.184C71.4495 251.811 71.1928 251.521 70.8568 251.316C70.5208 251.101 70.1335 250.994 69.6948 250.994C69.2748 250.994 68.8968 251.101 68.5608 251.316C68.2248 251.521 67.9635 251.811 67.7768 252.184C67.5901 252.548 67.4968 252.977 67.4968 253.472C67.4968 253.967 67.5901 254.401 67.7768 254.774C67.9635 255.147 68.2248 255.437 68.5608 255.642C68.8968 255.847 69.2748 255.95 69.6948 255.95ZM75.3332 257V249.944H76.7332V257H75.3332ZM76.0472 248.614C75.7765 248.614 75.5525 248.53 75.3752 248.362C75.2072 248.194 75.1232 247.979 75.1232 247.718C75.1232 247.466 75.2072 247.261 75.3752 247.102C75.5525 246.934 75.7765 246.85 76.0472 246.85C76.3085 246.85 76.5279 246.934 76.7052 247.102C76.8825 247.261 76.9712 247.466 76.9712 247.718C76.9712 247.979 76.8825 248.194 76.7052 248.362C76.5279 248.53 76.3085 248.614 76.0472 248.614ZM78.7352 257V249.944H79.9952L80.0792 251.148C80.3032 250.728 80.6205 250.397 81.0312 250.154C81.4419 249.902 81.9132 249.776 82.4452 249.776C83.0052 249.776 83.4859 249.888 83.8872 250.112C84.2885 250.336 84.6012 250.677 84.8252 251.134C85.0492 251.582 85.1612 252.147 85.1612 252.828V257H83.7612V252.968C83.7612 252.315 83.6165 251.82 83.3272 251.484C83.0379 251.148 82.6179 250.98 82.0672 250.98C81.7032 250.98 81.3765 251.069 81.0872 251.246C80.7979 251.414 80.5645 251.666 80.3872 252.002C80.2192 252.338 80.1352 252.749 80.1352 253.234V257H78.7352ZM89.822 260.248C89.178 260.248 88.6087 260.164 88.114 259.996C87.6193 259.837 87.2367 259.59 86.966 259.254C86.6953 258.918 86.56 258.507 86.56 258.022C86.56 257.77 86.616 257.513 86.728 257.252C86.84 257 87.022 256.757 87.274 256.524C87.526 256.291 87.8667 256.081 88.296 255.894L89.08 256.524C88.604 256.701 88.282 256.911 88.114 257.154C87.9553 257.406 87.876 257.649 87.876 257.882C87.876 258.162 87.96 258.395 88.128 258.582C88.296 258.769 88.5247 258.909 88.814 259.002C89.1127 259.095 89.4487 259.142 89.822 259.142C90.186 259.142 90.5033 259.091 90.774 258.988C91.0447 258.885 91.2547 258.741 91.404 258.554C91.5533 258.367 91.628 258.148 91.628 257.896C91.628 257.597 91.516 257.345 91.292 257.14C91.068 256.944 90.6387 256.827 90.004 256.79C89.472 256.753 89.0193 256.701 88.646 256.636C88.282 256.571 87.9693 256.491 87.708 256.398C87.456 256.305 87.2413 256.202 87.064 256.09C86.896 255.978 86.7513 255.861 86.63 255.74V255.418L88.03 253.976L89.164 254.368L87.638 255.782L87.932 255.152C88.0347 255.217 88.1327 255.283 88.226 255.348C88.3193 255.404 88.4453 255.455 88.604 255.502C88.7627 255.549 88.9773 255.591 89.248 255.628C89.5187 255.665 89.8733 255.703 90.312 255.74C90.9467 255.787 91.4553 255.899 91.838 256.076C92.23 256.253 92.5147 256.491 92.692 256.79C92.8693 257.089 92.958 257.443 92.958 257.854C92.958 258.255 92.846 258.638 92.622 259.002C92.4073 259.366 92.0667 259.665 91.6 259.898C91.1427 260.131 90.55 260.248 89.822 260.248ZM89.822 254.83C89.2247 254.83 88.716 254.718 88.296 254.494C87.8853 254.27 87.568 253.967 87.344 253.584C87.1293 253.201 87.022 252.777 87.022 252.31C87.022 251.834 87.1293 251.409 87.344 251.036C87.568 250.653 87.89 250.35 88.31 250.126C88.73 249.893 89.234 249.776 89.822 249.776C90.41 249.776 90.9093 249.893 91.32 250.126C91.74 250.35 92.0573 250.653 92.272 251.036C92.496 251.409 92.608 251.834 92.608 252.31C92.608 252.777 92.496 253.201 92.272 253.584C92.0573 253.967 91.74 254.27 91.32 254.494C90.9093 254.718 90.41 254.83 89.822 254.83ZM89.822 253.71C90.2793 253.71 90.6433 253.593 90.914 253.36C91.1847 253.117 91.32 252.767 91.32 252.31C91.32 251.853 91.1847 251.507 90.914 251.274C90.6433 251.031 90.2793 250.91 89.822 250.91C89.3647 250.91 88.996 251.031 88.716 251.274C88.436 251.507 88.296 251.853 88.296 252.31C88.296 252.767 88.436 253.117 88.716 253.36C88.996 253.593 89.3647 253.71 89.822 253.71ZM90.97 251.05L90.634 249.944H93.532V250.91L90.97 251.05ZM97.6664 257.168C97.069 257.168 96.5464 257.07 96.0984 256.874C95.6504 256.678 95.2957 256.403 95.0344 256.048C94.773 255.693 94.6144 255.278 94.5584 254.802H95.9864C96.033 255.026 96.1217 255.231 96.2524 255.418C96.3924 255.605 96.579 255.754 96.8124 255.866C97.055 255.978 97.3397 256.034 97.6664 256.034C97.9744 256.034 98.2264 255.992 98.4224 255.908C98.6277 255.815 98.777 255.693 98.8704 255.544C98.9637 255.385 99.0104 255.217 99.0104 255.04C99.0104 254.779 98.945 254.583 98.8144 254.452C98.693 254.312 98.5064 254.205 98.2544 254.13C98.0117 254.046 97.7177 253.971 97.3724 253.906C97.0457 253.85 96.7284 253.775 96.4204 253.682C96.1217 253.579 95.851 253.453 95.6084 253.304C95.375 253.155 95.1884 252.968 95.0484 252.744C94.9084 252.511 94.8384 252.226 94.8384 251.89C94.8384 251.489 94.9457 251.129 95.1604 250.812C95.375 250.485 95.6784 250.233 96.0704 250.056C96.4717 249.869 96.943 249.776 97.4844 249.776C98.2684 249.776 98.8984 249.963 99.3744 250.336C99.8504 250.709 100.13 251.237 100.214 251.918H98.8564C98.819 251.601 98.679 251.358 98.4364 251.19C98.1937 251.013 97.8717 250.924 97.4704 250.924C97.069 250.924 96.761 251.003 96.5464 251.162C96.3317 251.321 96.2244 251.531 96.2244 251.792C96.2244 251.96 96.285 252.109 96.4064 252.24C96.5277 252.371 96.705 252.483 96.9384 252.576C97.181 252.66 97.475 252.739 97.8204 252.814C98.315 252.907 98.7584 253.024 99.1504 253.164C99.5424 253.304 99.855 253.509 100.088 253.78C100.322 254.051 100.438 254.438 100.438 254.942C100.448 255.381 100.336 255.768 100.102 256.104C99.8784 256.44 99.5564 256.701 99.1364 256.888C98.7257 257.075 98.2357 257.168 97.6664 257.168Z" fill="#7B7B7C"/>
<path d="M82.228 55.168C81.5093 55.168 80.8793 55.042 80.338 54.79C79.7967 54.5287 79.3767 54.1647 79.078 53.698C78.7793 53.2313 78.63 52.6853 78.63 52.06H80.1C80.1093 52.4147 80.1933 52.7413 80.352 53.04C80.52 53.3293 80.758 53.5627 81.066 53.74C81.3833 53.908 81.7707 53.992 82.228 53.992C82.62 53.992 82.956 53.9267 83.236 53.796C83.5253 53.6653 83.7447 53.488 83.894 53.264C84.0433 53.0307 84.118 52.7647 84.118 52.466C84.118 52.1207 84.0387 51.836 83.88 51.612C83.7213 51.388 83.5067 51.206 83.236 51.066C82.9747 50.9167 82.6667 50.786 82.312 50.674C81.9667 50.562 81.6027 50.4407 81.22 50.31C80.4453 50.058 79.8667 49.7313 79.484 49.33C79.1107 48.9287 78.924 48.406 78.924 47.762C78.924 47.2113 79.0547 46.7353 79.316 46.334C79.5773 45.9233 79.9413 45.606 80.408 45.382C80.884 45.1487 81.444 45.032 82.088 45.032C82.7227 45.032 83.278 45.1487 83.754 45.382C84.23 45.6153 84.6033 45.9373 84.874 46.348C85.1447 46.7587 85.28 47.2393 85.28 47.79H83.796C83.796 47.538 83.7307 47.2907 83.6 47.048C83.4693 46.8053 83.2733 46.6093 83.012 46.46C82.7507 46.3013 82.4287 46.222 82.046 46.222C81.7287 46.2127 81.444 46.264 81.192 46.376C80.94 46.488 80.744 46.6513 80.604 46.866C80.464 47.0807 80.394 47.3373 80.394 47.636C80.394 47.9347 80.4547 48.1773 80.576 48.364C80.7067 48.5413 80.8933 48.6953 81.136 48.826C81.3787 48.9567 81.6587 49.078 81.976 49.19C82.3027 49.2927 82.662 49.4093 83.054 49.54C83.5393 49.6987 83.9687 49.8947 84.342 50.128C84.7247 50.352 85.0233 50.646 85.238 51.01C85.462 51.3647 85.574 51.822 85.574 52.382C85.574 52.8673 85.448 53.32 85.196 53.74C84.944 54.16 84.5707 54.5053 84.076 54.776C83.5813 55.0373 82.9653 55.168 82.228 55.168ZM90.3888 55.168C89.7261 55.168 89.1288 55.014 88.5968 54.706C88.0741 54.398 87.6588 53.9687 87.3508 53.418C87.0521 52.858 86.9028 52.214 86.9028 51.486C86.9028 50.7393 87.0568 50.0907 87.3648 49.54C87.6728 48.98 88.0928 48.546 88.6248 48.238C89.1568 47.93 89.7541 47.776 90.4168 47.776C91.0888 47.776 91.6861 47.93 92.2088 48.238C92.7315 48.546 93.1421 48.9753 93.4408 49.526C93.7488 50.0767 93.9028 50.7253 93.9028 51.472C93.9028 52.2187 93.7488 52.8673 93.4408 53.418C93.1421 53.9687 92.7268 54.398 92.1948 54.706C91.6628 55.014 91.0608 55.168 90.3888 55.168ZM90.3888 53.964C90.7715 53.964 91.1168 53.8707 91.4248 53.684C91.7421 53.4973 91.9941 53.222 92.1808 52.858C92.3768 52.4847 92.4748 52.0227 92.4748 51.472C92.4748 50.9213 92.3815 50.464 92.1948 50.1C92.0081 49.7267 91.7561 49.4467 91.4388 49.26C91.1308 49.0733 90.7901 48.98 90.4168 48.98C90.0435 48.98 89.6981 49.0733 89.3808 49.26C89.0635 49.4467 88.8068 49.7267 88.6108 50.1C88.4241 50.464 88.3308 50.9213 88.3308 51.472C88.3308 52.0227 88.4241 52.4847 88.6108 52.858C88.8068 53.222 89.0588 53.4973 89.3668 53.684C89.6841 53.8707 90.0248 53.964 90.3888 53.964ZM95.5497 55V44.92H96.9497V55H95.5497ZM102.008 55.168C101.336 55.168 100.743 55.0093 100.23 54.692C99.7166 54.3653 99.3153 53.9267 99.0259 53.376C98.7459 52.816 98.6059 52.1813 98.6059 51.472C98.6059 50.7533 98.7459 50.1187 99.0259 49.568C99.3153 49.0173 99.7166 48.5833 100.23 48.266C100.753 47.9393 101.35 47.776 102.022 47.776C102.573 47.776 103.058 47.888 103.478 48.112C103.898 48.3267 104.225 48.6347 104.458 49.036V44.92H105.858V55H104.598L104.458 53.908C104.318 54.1227 104.136 54.328 103.912 54.524C103.688 54.7107 103.417 54.8647 103.1 54.986C102.783 55.1073 102.419 55.168 102.008 55.168ZM102.232 53.95C102.671 53.95 103.058 53.8473 103.394 53.642C103.73 53.4367 103.987 53.1473 104.164 52.774C104.351 52.4007 104.444 51.9667 104.444 51.472C104.444 50.9773 104.351 50.548 104.164 50.184C103.987 49.8107 103.73 49.5213 103.394 49.316C103.058 49.1013 102.671 48.994 102.232 48.994C101.812 48.994 101.434 49.1013 101.098 49.316C100.762 49.5213 100.501 49.8107 100.314 50.184C100.127 50.548 100.034 50.9773 100.034 51.472C100.034 51.9667 100.127 52.4007 100.314 52.774C100.501 53.1473 100.762 53.4367 101.098 53.642C101.434 53.8473 101.812 53.95 102.232 53.95Z" fill="#7B7B7C"/>
<path d="M338.022 158V148.2H339.422V156.894H343.902V158H338.022ZM345.57 158V150.944H346.97V158H345.57ZM346.284 149.614C346.013 149.614 345.789 149.53 345.612 149.362C345.444 149.194 345.36 148.979 345.36 148.718C345.36 148.466 345.444 148.261 345.612 148.102C345.789 147.934 346.013 147.85 346.284 147.85C346.545 147.85 346.764 147.934 346.942 148.102C347.119 148.261 347.208 148.466 347.208 148.718C347.208 148.979 347.119 149.194 346.942 149.362C346.764 149.53 346.545 149.614 346.284 149.614ZM354.558 161.08V156.908C354.334 157.263 354.016 157.561 353.606 157.804C353.204 158.047 352.71 158.168 352.122 158.168C351.45 158.168 350.852 158.009 350.33 157.692C349.816 157.365 349.415 156.927 349.126 156.376C348.846 155.816 348.706 155.181 348.706 154.472C348.706 153.763 348.85 153.133 349.14 152.582C349.429 152.022 349.83 151.583 350.344 151.266C350.857 150.939 351.45 150.776 352.122 150.776C352.504 150.776 352.85 150.832 353.158 150.944C353.475 151.047 353.75 151.191 353.984 151.378C354.217 151.565 354.408 151.784 354.558 152.036L354.698 150.944H355.958V161.08H354.558ZM352.332 156.95C352.77 156.95 353.158 156.847 353.494 156.642C353.83 156.437 354.086 156.147 354.264 155.774C354.45 155.401 354.544 154.967 354.544 154.472C354.544 153.977 354.45 153.548 354.264 153.184C354.086 152.811 353.83 152.521 353.494 152.316C353.158 152.101 352.77 151.994 352.332 151.994C351.912 151.994 351.534 152.101 351.198 152.316C350.862 152.521 350.6 152.811 350.414 153.184C350.227 153.548 350.134 153.977 350.134 154.472C350.134 154.967 350.227 155.401 350.414 155.774C350.6 156.147 350.862 156.437 351.198 156.642C351.534 156.847 351.912 156.95 352.332 156.95ZM360.462 158.168C359.911 158.168 359.431 158.056 359.02 157.832C358.619 157.608 358.306 157.272 358.082 156.824C357.867 156.376 357.76 155.811 357.76 155.13V150.944H359.16V154.976C359.16 155.639 359.305 156.138 359.594 156.474C359.883 156.81 360.299 156.978 360.84 156.978C361.204 156.978 361.531 156.889 361.82 156.712C362.119 156.535 362.352 156.278 362.52 155.942C362.688 155.606 362.772 155.195 362.772 154.71V150.944H364.172V158H362.926L362.828 156.796C362.613 157.225 362.301 157.561 361.89 157.804C361.479 158.047 361.003 158.168 360.462 158.168ZM366.187 158V150.944H367.587V158H366.187ZM366.901 149.614C366.63 149.614 366.406 149.53 366.229 149.362C366.061 149.194 365.977 148.979 365.977 148.718C365.977 148.466 366.061 148.261 366.229 148.102C366.406 147.934 366.63 147.85 366.901 147.85C367.162 147.85 367.381 147.934 367.559 148.102C367.736 148.261 367.825 148.466 367.825 148.718C367.825 148.979 367.736 149.194 367.559 149.362C367.381 149.53 367.162 149.614 366.901 149.614ZM372.725 158.168C372.053 158.168 371.46 158.009 370.947 157.692C370.433 157.365 370.032 156.927 369.743 156.376C369.463 155.816 369.323 155.181 369.323 154.472C369.323 153.753 369.463 153.119 369.743 152.568C370.032 152.017 370.433 151.583 370.947 151.266C371.469 150.939 372.067 150.776 372.739 150.776C373.289 150.776 373.775 150.888 374.195 151.112C374.615 151.327 374.941 151.635 375.175 152.036V147.92H376.575V158H375.315L375.175 156.908C375.035 157.123 374.853 157.328 374.629 157.524C374.405 157.711 374.134 157.865 373.817 157.986C373.499 158.107 373.135 158.168 372.725 158.168ZM372.949 156.95C373.387 156.95 373.775 156.847 374.111 156.642C374.447 156.437 374.703 156.147 374.881 155.774C375.067 155.401 375.161 154.967 375.161 154.472C375.161 153.977 375.067 153.548 374.881 153.184C374.703 152.811 374.447 152.521 374.111 152.316C373.775 152.101 373.387 151.994 372.949 151.994C372.529 151.994 372.151 152.101 371.815 152.316C371.479 152.521 371.217 152.811 371.031 153.184C370.844 153.548 370.751 153.977 370.751 154.472C370.751 154.967 370.844 155.401 371.031 155.774C371.217 156.147 371.479 156.437 371.815 156.642C372.151 156.847 372.529 156.95 372.949 156.95ZM378.587 158V150.944H379.987V158H378.587ZM379.301 149.614C379.03 149.614 378.806 149.53 378.629 149.362C378.461 149.194 378.377 148.979 378.377 148.718C378.377 148.466 378.461 148.261 378.629 148.102C378.806 147.934 379.03 147.85 379.301 147.85C379.562 147.85 379.782 147.934 379.959 148.102C380.136 148.261 380.225 148.466 380.225 148.718C380.225 148.979 380.136 149.194 379.959 149.362C379.782 149.53 379.562 149.614 379.301 149.614ZM384.901 158C384.453 158 384.066 157.93 383.739 157.79C383.412 157.65 383.16 157.417 382.983 157.09C382.806 156.763 382.717 156.32 382.717 155.76V152.134H381.499V150.944H382.717L382.885 149.18H384.117V150.944H386.119V152.134H384.117V155.774C384.117 156.175 384.201 156.451 384.369 156.6C384.537 156.74 384.826 156.81 385.237 156.81H386.049V158H384.901ZM388.475 161.08L390.197 157.216H389.791L387.005 150.944H388.517L390.729 156.068L392.955 150.944H394.425L389.945 161.08H388.475Z" fill="#7B7B7C"/>
<path d="M160.022 303V293.2H161.674L164.992 299.822L168.296 293.2H169.962V303H168.562V295.65L165.524 301.628H164.446L161.422 295.664V303H160.022ZM174.267 303.168C173.688 303.168 173.207 303.07 172.825 302.874C172.442 302.678 172.157 302.417 171.971 302.09C171.784 301.754 171.691 301.395 171.691 301.012C171.691 300.545 171.812 300.149 172.055 299.822C172.297 299.486 172.643 299.229 173.091 299.052C173.539 298.875 174.075 298.786 174.701 298.786H176.535C176.535 298.375 176.474 298.035 176.353 297.764C176.231 297.493 176.049 297.293 175.807 297.162C175.573 297.022 175.275 296.952 174.911 296.952C174.491 296.952 174.131 297.055 173.833 297.26C173.534 297.456 173.347 297.75 173.273 298.142H171.873C171.929 297.647 172.097 297.227 172.377 296.882C172.666 296.527 173.035 296.257 173.483 296.07C173.931 295.874 174.407 295.776 174.911 295.776C175.573 295.776 176.129 295.893 176.577 296.126C177.025 296.359 177.361 296.691 177.585 297.12C177.818 297.54 177.935 298.044 177.935 298.632V303H176.717L176.605 301.81C176.502 301.997 176.381 302.174 176.241 302.342C176.101 302.51 175.933 302.655 175.737 302.776C175.55 302.897 175.331 302.991 175.079 303.056C174.836 303.131 174.565 303.168 174.267 303.168ZM174.533 302.034C174.831 302.034 175.102 301.973 175.345 301.852C175.587 301.731 175.793 301.567 175.961 301.362C176.138 301.147 176.269 300.909 176.353 300.648C176.446 300.377 176.497 300.102 176.507 299.822V299.78H174.841C174.439 299.78 174.113 299.831 173.861 299.934C173.618 300.027 173.441 300.158 173.329 300.326C173.217 300.494 173.161 300.69 173.161 300.914C173.161 301.147 173.212 301.348 173.315 301.516C173.427 301.675 173.585 301.801 173.791 301.894C173.996 301.987 174.243 302.034 174.533 302.034ZM179.722 303V295.944H180.982L181.108 297.274C181.266 296.957 181.472 296.691 181.724 296.476C181.976 296.252 182.27 296.079 182.606 295.958C182.951 295.837 183.343 295.776 183.782 295.776V297.26H183.278C182.988 297.26 182.713 297.297 182.452 297.372C182.19 297.437 181.957 297.554 181.752 297.722C181.556 297.89 181.402 298.119 181.29 298.408C181.178 298.697 181.122 299.057 181.122 299.486V303H179.722ZM189.505 303L186.257 299.136L189.197 295.944H190.891L187.391 299.682V298.632L191.269 303H189.505ZM185.067 303V292.92H186.467V303H185.067ZM195.109 303.168C194.437 303.168 193.84 303.014 193.317 302.706C192.794 302.398 192.384 301.969 192.085 301.418C191.796 300.867 191.651 300.228 191.651 299.5C191.651 298.753 191.796 298.105 192.085 297.554C192.384 296.994 192.794 296.56 193.317 296.252C193.84 295.935 194.446 295.776 195.137 295.776C195.828 295.776 196.42 295.93 196.915 296.238C197.41 296.546 197.792 296.957 198.063 297.47C198.334 297.974 198.469 298.534 198.469 299.15C198.469 299.243 198.464 299.346 198.455 299.458C198.455 299.561 198.45 299.677 198.441 299.808H192.673V298.814H197.069C197.041 298.226 196.845 297.769 196.481 297.442C196.117 297.106 195.664 296.938 195.123 296.938C194.74 296.938 194.39 297.027 194.073 297.204C193.756 297.372 193.499 297.624 193.303 297.96C193.116 298.287 193.023 298.702 193.023 299.206V299.598C193.023 300.121 193.116 300.564 193.303 300.928C193.499 301.283 193.756 301.553 194.073 301.74C194.39 301.917 194.736 302.006 195.109 302.006C195.557 302.006 195.926 301.908 196.215 301.712C196.504 301.516 196.719 301.25 196.859 300.914H198.259C198.138 301.343 197.932 301.731 197.643 302.076C197.354 302.412 196.994 302.678 196.565 302.874C196.145 303.07 195.66 303.168 195.109 303.168ZM202.745 303C202.297 303 201.91 302.93 201.583 302.79C201.256 302.65 201.004 302.417 200.827 302.09C200.65 301.763 200.561 301.32 200.561 300.76V297.134H199.343V295.944H200.561L200.729 294.18H201.961V295.944H203.963V297.134H201.961V300.774C201.961 301.175 202.045 301.451 202.213 301.6C202.381 301.74 202.67 301.81 203.081 301.81H203.893V303H202.745ZM212.057 303L208.417 293.2H209.929L212.897 301.544L215.893 293.2H217.377L213.737 303H212.057ZM220.936 303.168C220.273 303.168 219.676 303.014 219.144 302.706C218.621 302.398 218.206 301.969 217.898 301.418C217.599 300.858 217.45 300.214 217.45 299.486C217.45 298.739 217.604 298.091 217.912 297.54C218.22 296.98 218.64 296.546 219.172 296.238C219.704 295.93 220.301 295.776 220.964 295.776C221.636 295.776 222.233 295.93 222.756 296.238C223.278 296.546 223.689 296.975 223.988 297.526C224.296 298.077 224.45 298.725 224.45 299.472C224.45 300.219 224.296 300.867 223.988 301.418C223.689 301.969 223.274 302.398 222.742 302.706C222.21 303.014 221.608 303.168 220.936 303.168ZM220.936 301.964C221.318 301.964 221.664 301.871 221.972 301.684C222.289 301.497 222.541 301.222 222.728 300.858C222.924 300.485 223.022 300.023 223.022 299.472C223.022 298.921 222.928 298.464 222.742 298.1C222.555 297.727 222.303 297.447 221.986 297.26C221.678 297.073 221.337 296.98 220.964 296.98C220.59 296.98 220.245 297.073 219.928 297.26C219.61 297.447 219.354 297.727 219.158 298.1C218.971 298.464 218.878 298.921 218.878 299.472C218.878 300.023 218.971 300.485 219.158 300.858C219.354 301.222 219.606 301.497 219.914 301.684C220.231 301.871 220.572 301.964 220.936 301.964ZM226.097 303V292.92H227.497V303H226.097ZM232.009 303.168C231.458 303.168 230.977 303.056 230.567 302.832C230.165 302.608 229.853 302.272 229.629 301.824C229.414 301.376 229.307 300.811 229.307 300.13V295.944H230.707V299.976C230.707 300.639 230.851 301.138 231.141 301.474C231.43 301.81 231.845 301.978 232.387 301.978C232.751 301.978 233.077 301.889 233.367 301.712C233.665 301.535 233.899 301.278 234.067 300.942C234.235 300.606 234.319 300.195 234.319 299.71V295.944H235.719V303H234.473L234.375 301.796C234.16 302.225 233.847 302.561 233.437 302.804C233.026 303.047 232.55 303.168 232.009 303.168ZM237.636 303V295.944H238.896L238.994 296.938C239.218 296.574 239.516 296.289 239.89 296.084C240.263 295.879 240.683 295.776 241.15 295.776C241.504 295.776 241.826 295.827 242.116 295.93C242.405 296.023 242.662 296.168 242.886 296.364C243.11 296.56 243.292 296.803 243.432 297.092C243.684 296.681 244.02 296.359 244.44 296.126C244.869 295.893 245.322 295.776 245.798 295.776C246.367 295.776 246.857 295.893 247.268 296.126C247.678 296.35 247.991 296.691 248.206 297.148C248.42 297.596 248.528 298.156 248.528 298.828V303H247.142V298.968C247.142 298.315 247.006 297.82 246.736 297.484C246.474 297.148 246.087 296.98 245.574 296.98C245.228 296.98 244.92 297.069 244.65 297.246C244.379 297.423 244.164 297.68 244.006 298.016C243.856 298.352 243.782 298.763 243.782 299.248V303H242.382V298.968C242.382 298.315 242.246 297.82 241.976 297.484C241.714 297.148 241.327 296.98 240.814 296.98C240.487 296.98 240.188 297.069 239.918 297.246C239.647 297.423 239.432 297.68 239.274 298.016C239.115 298.352 239.036 298.763 239.036 299.248V303H237.636ZM253.529 303.168C252.857 303.168 252.259 303.014 251.737 302.706C251.214 302.398 250.803 301.969 250.505 301.418C250.215 300.867 250.071 300.228 250.071 299.5C250.071 298.753 250.215 298.105 250.505 297.554C250.803 296.994 251.214 296.56 251.737 296.252C252.259 295.935 252.866 295.776 253.557 295.776C254.247 295.776 254.84 295.93 255.335 296.238C255.829 296.546 256.212 296.957 256.483 297.47C256.753 297.974 256.889 298.534 256.889 299.15C256.889 299.243 256.884 299.346 256.875 299.458C256.875 299.561 256.87 299.677 256.861 299.808H251.093V298.814H255.489C255.461 298.226 255.265 297.769 254.901 297.442C254.537 297.106 254.084 296.938 253.543 296.938C253.16 296.938 252.81 297.027 252.493 297.204C252.175 297.372 251.919 297.624 251.723 297.96C251.536 298.287 251.443 298.702 251.443 299.206V299.598C251.443 300.121 251.536 300.564 251.723 300.928C251.919 301.283 252.175 301.553 252.493 301.74C252.81 301.917 253.155 302.006 253.529 302.006C253.977 302.006 254.345 301.908 254.635 301.712C254.924 301.516 255.139 301.25 255.279 300.914H256.679C256.557 301.343 256.352 301.731 256.063 302.076C255.773 302.412 255.414 302.678 254.985 302.874C254.565 303.07 254.079 303.168 253.529 303.168Z" fill="#7B7B7C"/>
<path d="M295.022 266V256.2H298.368C299.152 256.2 299.796 256.331 300.3 256.592C300.804 256.853 301.177 257.203 301.42 257.642C301.663 258.081 301.784 258.58 301.784 259.14C301.784 259.672 301.663 260.162 301.42 260.61C301.187 261.049 300.818 261.403 300.314 261.674C299.81 261.935 299.161 262.066 298.368 262.066H296.422V266H295.022ZM296.422 260.904H298.312C299.049 260.904 299.572 260.745 299.88 260.428C300.197 260.101 300.356 259.672 300.356 259.14C300.356 258.571 300.197 258.132 299.88 257.824C299.572 257.516 299.049 257.362 298.312 257.362H296.422V260.904ZM303.223 266V258.944H304.483L304.609 260.274C304.768 259.957 304.973 259.691 305.225 259.476C305.477 259.252 305.771 259.079 306.107 258.958C306.453 258.837 306.845 258.776 307.283 258.776V260.26H306.779C306.49 260.26 306.215 260.297 305.953 260.372C305.692 260.437 305.459 260.554 305.253 260.722C305.057 260.89 304.903 261.119 304.791 261.408C304.679 261.697 304.623 262.057 304.623 262.486V266H303.223ZM308.667 266V258.944H310.067V266H308.667ZM309.381 257.614C309.111 257.614 308.887 257.53 308.709 257.362C308.541 257.194 308.457 256.979 308.457 256.718C308.457 256.466 308.541 256.261 308.709 256.102C308.887 255.934 309.111 255.85 309.381 255.85C309.643 255.85 309.862 255.934 310.039 256.102C310.217 256.261 310.305 256.466 310.305 256.718C310.305 256.979 310.217 257.194 310.039 257.362C309.862 257.53 309.643 257.614 309.381 257.614ZM315.331 266.168C314.65 266.168 314.043 266.014 313.511 265.706C312.979 265.389 312.559 264.955 312.251 264.404C311.953 263.853 311.803 263.214 311.803 262.486C311.803 261.749 311.953 261.105 312.251 260.554C312.559 259.994 312.979 259.56 313.511 259.252C314.043 258.935 314.65 258.776 315.331 258.776C316.19 258.776 316.909 259 317.487 259.448C318.066 259.896 318.435 260.503 318.593 261.268H317.137C317.044 260.857 316.829 260.54 316.493 260.316C316.167 260.092 315.775 259.98 315.317 259.98C314.944 259.98 314.599 260.078 314.281 260.274C313.964 260.461 313.707 260.741 313.511 261.114C313.325 261.478 313.231 261.931 313.231 262.472C313.231 262.873 313.287 263.233 313.399 263.55C313.511 263.858 313.661 264.119 313.847 264.334C314.043 264.549 314.267 264.712 314.519 264.824C314.771 264.927 315.037 264.978 315.317 264.978C315.625 264.978 315.901 264.931 316.143 264.838C316.395 264.735 316.605 264.586 316.773 264.39C316.951 264.194 317.072 263.961 317.137 263.69H318.593C318.435 264.437 318.066 265.039 317.487 265.496C316.909 265.944 316.19 266.168 315.331 266.168ZM323.423 266.168C322.751 266.168 322.154 266.014 321.631 265.706C321.109 265.398 320.698 264.969 320.399 264.418C320.11 263.867 319.965 263.228 319.965 262.5C319.965 261.753 320.11 261.105 320.399 260.554C320.698 259.994 321.109 259.56 321.631 259.252C322.154 258.935 322.761 258.776 323.451 258.776C324.142 258.776 324.735 258.93 325.229 259.238C325.724 259.546 326.107 259.957 326.377 260.47C326.648 260.974 326.783 261.534 326.783 262.15C326.783 262.243 326.779 262.346 326.769 262.458C326.769 262.561 326.765 262.677 326.755 262.808H320.987V261.814H325.383C325.355 261.226 325.159 260.769 324.795 260.442C324.431 260.106 323.979 259.938 323.437 259.938C323.055 259.938 322.705 260.027 322.387 260.204C322.07 260.372 321.813 260.624 321.617 260.96C321.431 261.287 321.337 261.702 321.337 262.206V262.598C321.337 263.121 321.431 263.564 321.617 263.928C321.813 264.283 322.07 264.553 322.387 264.74C322.705 264.917 323.05 265.006 323.423 265.006C323.871 265.006 324.24 264.908 324.529 264.712C324.819 264.516 325.033 264.25 325.173 263.914H326.573C326.452 264.343 326.247 264.731 325.957 265.076C325.668 265.412 325.309 265.678 324.879 265.874C324.459 266.07 323.974 266.168 323.423 266.168ZM331.991 266V256.2H338.081V257.348H333.391V260.526H337.311V261.646H333.391V266H331.991ZM339.509 266V255.92H340.909V266H339.509ZM346.051 266.168C345.388 266.168 344.791 266.014 344.259 265.706C343.736 265.398 343.321 264.969 343.013 264.418C342.714 263.858 342.565 263.214 342.565 262.486C342.565 261.739 342.719 261.091 343.027 260.54C343.335 259.98 343.755 259.546 344.287 259.238C344.819 258.93 345.416 258.776 346.079 258.776C346.751 258.776 347.348 258.93 347.871 259.238C348.394 259.546 348.804 259.975 349.103 260.526C349.411 261.077 349.565 261.725 349.565 262.472C349.565 263.219 349.411 263.867 349.103 264.418C348.804 264.969 348.389 265.398 347.857 265.706C347.325 266.014 346.723 266.168 346.051 266.168ZM346.051 264.964C346.434 264.964 346.779 264.871 347.087 264.684C347.404 264.497 347.656 264.222 347.843 263.858C348.039 263.485 348.137 263.023 348.137 262.472C348.137 261.921 348.044 261.464 347.857 261.1C347.67 260.727 347.418 260.447 347.101 260.26C346.793 260.073 346.452 259.98 346.079 259.98C345.706 259.98 345.36 260.073 345.043 260.26C344.726 260.447 344.469 260.727 344.273 261.1C344.086 261.464 343.993 261.921 343.993 262.472C343.993 263.023 344.086 263.485 344.273 263.858C344.469 264.222 344.721 264.497 345.029 264.684C345.346 264.871 345.687 264.964 346.051 264.964ZM352.394 266L350.322 258.944H351.708L353.248 264.824L352.982 264.81L354.69 258.944H356.258L357.966 264.81L357.7 264.824L359.226 258.944H360.64L358.568 266H357.126L355.334 259.882H355.614L353.822 266H352.394Z" fill="#7B7B7C"/>
<path d="M4.228 158.168C3.50933 158.168 2.87933 158.042 2.338 157.79C1.79667 157.529 1.37667 157.165 1.078 156.698C0.779333 156.231 0.63 155.685 0.63 155.06H2.1C2.10933 155.415 2.19333 155.741 2.352 156.04C2.52 156.329 2.758 156.563 3.066 156.74C3.38333 156.908 3.77067 156.992 4.228 156.992C4.62 156.992 4.956 156.927 5.236 156.796C5.52533 156.665 5.74467 156.488 5.894 156.264C6.04333 156.031 6.118 155.765 6.118 155.466C6.118 155.121 6.03867 154.836 5.88 154.612C5.72133 154.388 5.50667 154.206 5.236 154.066C4.97467 153.917 4.66667 153.786 4.312 153.674C3.96667 153.562 3.60267 153.441 3.22 153.31C2.44533 153.058 1.86667 152.731 1.484 152.33C1.11067 151.929 0.924 151.406 0.924 150.762C0.924 150.211 1.05467 149.735 1.316 149.334C1.57733 148.923 1.94133 148.606 2.408 148.382C2.884 148.149 3.444 148.032 4.088 148.032C4.72267 148.032 5.278 148.149 5.754 148.382C6.23 148.615 6.60333 148.937 6.874 149.348C7.14467 149.759 7.28 150.239 7.28 150.79H5.796C5.796 150.538 5.73067 150.291 5.6 150.048C5.46933 149.805 5.27333 149.609 5.012 149.46C4.75067 149.301 4.42867 149.222 4.046 149.222C3.72867 149.213 3.444 149.264 3.192 149.376C2.94 149.488 2.744 149.651 2.604 149.866C2.464 150.081 2.394 150.337 2.394 150.636C2.394 150.935 2.45467 151.177 2.576 151.364C2.70667 151.541 2.89333 151.695 3.136 151.826C3.37867 151.957 3.65867 152.078 3.976 152.19C4.30267 152.293 4.662 152.409 5.054 152.54C5.53933 152.699 5.96867 152.895 6.342 153.128C6.72467 153.352 7.02333 153.646 7.238 154.01C7.462 154.365 7.574 154.822 7.574 155.382C7.574 155.867 7.448 156.32 7.196 156.74C6.944 157.16 6.57067 157.505 6.076 157.776C5.58133 158.037 4.96533 158.168 4.228 158.168ZM12.4308 158.168C11.7495 158.168 11.1428 158.014 10.6108 157.706C10.0788 157.389 9.6588 156.955 9.3508 156.404C9.05213 155.853 8.9028 155.214 8.9028 154.486C8.9028 153.749 9.05213 153.105 9.3508 152.554C9.6588 151.994 10.0788 151.56 10.6108 151.252C11.1428 150.935 11.7495 150.776 12.4308 150.776C13.2895 150.776 14.0081 151 14.5868 151.448C15.1655 151.896 15.5341 152.503 15.6928 153.268H14.2368C14.1435 152.857 13.9288 152.54 13.5928 152.316C13.2661 152.092 12.8741 151.98 12.4168 151.98C12.0435 151.98 11.6981 152.078 11.3808 152.274C11.0635 152.461 10.8068 152.741 10.6108 153.114C10.4241 153.478 10.3308 153.931 10.3308 154.472C10.3308 154.873 10.3868 155.233 10.4988 155.55C10.6108 155.858 10.7601 156.119 10.9468 156.334C11.1428 156.549 11.3668 156.712 11.6188 156.824C11.8708 156.927 12.1368 156.978 12.4168 156.978C12.7248 156.978 13.0001 156.931 13.2428 156.838C13.4948 156.735 13.7048 156.586 13.8728 156.39C14.0501 156.194 14.1715 155.961 14.2368 155.69H15.6928C15.5341 156.437 15.1655 157.039 14.5868 157.496C14.0081 157.944 13.2895 158.168 12.4308 158.168ZM19.6689 158.168C19.0902 158.168 18.6096 158.07 18.2269 157.874C17.8442 157.678 17.5596 157.417 17.3729 157.09C17.1862 156.754 17.0929 156.395 17.0929 156.012C17.0929 155.545 17.2142 155.149 17.4569 154.822C17.6996 154.486 18.0449 154.229 18.4929 154.052C18.9409 153.875 19.4776 153.786 20.1029 153.786H21.9369C21.9369 153.375 21.8762 153.035 21.7549 152.764C21.6336 152.493 21.4516 152.293 21.2089 152.162C20.9756 152.022 20.6769 151.952 20.3129 151.952C19.8929 151.952 19.5336 152.055 19.2349 152.26C18.9362 152.456 18.7496 152.75 18.6749 153.142H17.2749C17.3309 152.647 17.4989 152.227 17.7789 151.882C18.0682 151.527 18.4369 151.257 18.8849 151.07C19.3329 150.874 19.8089 150.776 20.3129 150.776C20.9756 150.776 21.5309 150.893 21.9789 151.126C22.4269 151.359 22.7629 151.691 22.9869 152.12C23.2202 152.54 23.3369 153.044 23.3369 153.632V158H22.1189L22.0069 156.81C21.9042 156.997 21.7829 157.174 21.6429 157.342C21.5029 157.51 21.3349 157.655 21.1389 157.776C20.9522 157.897 20.7329 157.991 20.4809 158.056C20.2382 158.131 19.9676 158.168 19.6689 158.168ZM19.9349 157.034C20.2336 157.034 20.5042 156.973 20.7469 156.852C20.9896 156.731 21.1949 156.567 21.3629 156.362C21.5402 156.147 21.6709 155.909 21.7549 155.648C21.8482 155.377 21.8996 155.102 21.9089 154.822V154.78H20.2429C19.8416 154.78 19.5149 154.831 19.2629 154.934C19.0202 155.027 18.8429 155.158 18.7309 155.326C18.6189 155.494 18.5629 155.69 18.5629 155.914C18.5629 156.147 18.6142 156.348 18.7169 156.516C18.8289 156.675 18.9876 156.801 19.1929 156.894C19.3982 156.987 19.6456 157.034 19.9349 157.034ZM25.1239 158V147.92H26.5239V158H25.1239ZM30.7841 158.168C30.2055 158.168 29.7248 158.07 29.3421 157.874C28.9595 157.678 28.6748 157.417 28.4881 157.09C28.3015 156.754 28.2081 156.395 28.2081 156.012C28.2081 155.545 28.3295 155.149 28.5721 154.822C28.8148 154.486 29.1601 154.229 29.6081 154.052C30.0561 153.875 30.5928 153.786 31.2181 153.786H33.0521C33.0521 153.375 32.9915 153.035 32.8701 152.764C32.7488 152.493 32.5668 152.293 32.3241 152.162C32.0908 152.022 31.7921 151.952 31.4281 151.952C31.0081 151.952 30.6488 152.055 30.3501 152.26C30.0515 152.456 29.8648 152.75 29.7901 153.142H28.3901C28.4461 152.647 28.6141 152.227 28.8941 151.882C29.1835 151.527 29.5521 151.257 30.0001 151.07C30.4481 150.874 30.9241 150.776 31.4281 150.776C32.0908 150.776 32.6461 150.893 33.0941 151.126C33.5421 151.359 33.8781 151.691 34.1021 152.12C34.3355 152.54 34.4521 153.044 34.4521 153.632V158H33.2341L33.1221 156.81C33.0195 156.997 32.8981 157.174 32.7581 157.342C32.6181 157.51 32.4501 157.655 32.2541 157.776C32.0675 157.897 31.8481 157.991 31.5961 158.056C31.3535 158.131 31.0828 158.168 30.7841 158.168ZM31.0501 157.034C31.3488 157.034 31.6195 156.973 31.8621 156.852C32.1048 156.731 32.3101 156.567 32.4781 156.362C32.6555 156.147 32.7861 155.909 32.8701 155.648C32.9635 155.377 33.0148 155.102 33.0241 154.822V154.78H31.3581C30.9568 154.78 30.6301 154.831 30.3781 154.934C30.1355 155.027 29.9581 155.158 29.8461 155.326C29.7341 155.494 29.6781 155.69 29.6781 155.914C29.6781 156.147 29.7295 156.348 29.8321 156.516C29.9441 156.675 30.1028 156.801 30.3081 156.894C30.5135 156.987 30.7608 157.034 31.0501 157.034ZM40.0891 158.168C39.7064 158.168 39.3564 158.112 39.0391 158C38.7311 157.897 38.4604 157.753 38.2271 157.566C37.9938 157.379 37.7978 157.165 37.6391 156.922L37.4991 158H36.2391V147.92H37.6391V152.05C37.8631 151.695 38.1758 151.397 38.5771 151.154C38.9878 150.902 39.4918 150.776 40.0891 150.776C40.7611 150.776 41.3538 150.939 41.8671 151.266C42.3804 151.583 42.7771 152.022 43.0571 152.582C43.3464 153.133 43.4911 153.767 43.4911 154.486C43.4911 155.186 43.3464 155.816 43.0571 156.376C42.7771 156.936 42.3804 157.375 41.8671 157.692C41.3538 158.009 40.7611 158.168 40.0891 158.168ZM39.8651 156.95C40.2944 156.95 40.6724 156.847 40.9991 156.642C41.3351 156.437 41.5964 156.147 41.7831 155.774C41.9791 155.401 42.0771 154.967 42.0771 154.472C42.0771 153.977 41.9791 153.548 41.7831 153.184C41.5964 152.811 41.3351 152.521 40.9991 152.316C40.6724 152.101 40.2944 151.994 39.8651 151.994C39.4264 151.994 39.0391 152.101 38.7031 152.316C38.3764 152.521 38.1198 152.811 37.9331 153.184C37.7464 153.548 37.6531 153.977 37.6531 154.472C37.6531 154.967 37.7464 155.401 37.9331 155.774C38.1198 156.147 38.3764 156.437 38.7031 156.642C39.0391 156.847 39.4264 156.95 39.8651 156.95ZM45.2238 158V150.944H46.6238V158H45.2238ZM45.9378 149.614C45.6672 149.614 45.4432 149.53 45.2658 149.362C45.0978 149.194 45.0138 148.979 45.0138 148.718C45.0138 148.466 45.0978 148.261 45.2658 148.102C45.4432 147.934 45.6672 147.85 45.9378 147.85C46.1992 147.85 46.4185 147.934 46.5958 148.102C46.7732 148.261 46.8618 148.466 46.8618 148.718C46.8618 148.979 46.7732 149.194 46.5958 149.362C46.4185 149.53 46.1992 149.614 45.9378 149.614ZM48.6258 158V147.92H50.0258V158H48.6258ZM52.0461 158V150.944H53.4461V158H52.0461ZM52.7601 149.614C52.4894 149.614 52.2654 149.53 52.0881 149.362C51.9201 149.194 51.8361 148.979 51.8361 148.718C51.8361 148.466 51.9201 148.261 52.0881 148.102C52.2654 147.934 52.4894 147.85 52.7601 147.85C53.0214 147.85 53.2408 147.934 53.4181 148.102C53.5954 148.261 53.6841 148.466 53.6841 148.718C53.6841 148.979 53.5954 149.194 53.4181 149.362C53.2408 149.53 53.0214 149.614 52.7601 149.614ZM58.3601 158C57.9121 158 57.5248 157.93 57.1981 157.79C56.8714 157.65 56.6194 157.417 56.4421 157.09C56.2648 156.763 56.1761 156.32 56.1761 155.76V152.134H54.9581V150.944H56.1761L56.3441 149.18H57.5761V150.944H59.5781V152.134H57.5761V155.774C57.5761 156.175 57.6601 156.451 57.8281 156.6C57.9961 156.74 58.2854 156.81 58.6961 156.81H59.5081V158H58.3601ZM61.9339 161.08L63.6559 157.216H63.2499L60.4639 150.944H61.9759L64.1879 156.068L66.4139 150.944H67.8839L63.4039 161.08H61.9339Z" fill="#7B7B7C"/>
<path d="M293.51 62.4903L203 25L112.49 62.4903L75 153L112.49 243.51L203 281L293.51 243.51L331 153L293.51 62.4903Z" stroke="#7B7B7C"/>
<path d="M203 25V153M203 153L293.51 62.4903M203 153H331M203 153L293.51 243.51M203 153V281M203 153L112.49 243.51M203 153H75M203 153L112.49 62.4903" stroke="#7B7B7C"/>
<path d="M203 57L293.51 62.4903L265.72 153L276.313 226.313L203 278.44L121.542 234.459L133.88 153L124.257 74.2566L203 57Z" fill="#7086FD" fill-opacity="0.5" stroke="#7086FD" stroke-width="1.5"/>
<path d="M203 77.48L228.343 127.657L327.16 153L272.693 222.692L203 249L139.643 216.357L80.1201 153L152.315 102.315L203 77.48Z" fill="#6FD195" fill-opacity="0.5" stroke="#6FD195" stroke-width="1.5"/>
<path d="M300.022 62V52.2H306.112V53.348H301.422V56.526H305.342V57.646H301.422V62H300.022ZM310.508 62L306.868 52.2H308.38L311.348 60.544L314.344 52.2H315.828L312.188 62H310.508ZM317.126 62V52.2H320.136C321.274 52.2 322.217 52.4007 322.964 52.802C323.71 53.2033 324.261 53.7727 324.616 54.51C324.98 55.238 325.162 56.106 325.162 57.114C325.162 58.122 324.98 58.99 324.616 59.718C324.261 60.446 323.71 61.0107 322.964 61.412C322.226 61.804 321.284 62 320.136 62H317.126ZM318.526 60.824H320.08C320.985 60.824 321.704 60.6747 322.236 60.376C322.768 60.0773 323.146 59.6527 323.37 59.102C323.603 58.542 323.72 57.8793 323.72 57.114C323.72 56.3393 323.603 55.672 323.37 55.112C323.146 54.552 322.768 54.1227 322.236 53.824C321.704 53.5253 320.985 53.376 320.08 53.376H318.526V60.824Z" fill="#7B7B7C"/>
</svg>
