<svg width="114" height="44" viewBox="0 0 114 44" fill="none" xmlns="http://www.w3.org/2000/svg">
<path d="M4.6875 29.4283V17.5029L13.6875 23.5925V34.5029L4.6875 29.4283Z" stroke="white" stroke-width="3" stroke-linejoin="round"/>
<path d="M17.9041 21.0596V10.4174C17.9041 8.83572 19.6532 7.87991 20.9843 8.7342L29.3174 14.0823C29.8906 14.4502 30.2372 15.0844 30.2372 15.7655V25.5164C30.2372 27.0273 28.6262 27.9926 27.2939 27.28L18.9608 22.8233C18.3102 22.4753 17.9041 21.7974 17.9041 21.0596Z" fill="white"/>
<path d="M12.9683 5.94186C14.3118 5.19002 15.9654 6.17454 15.9448 7.714L15.8403 15.4992C15.8197 17.0386 14.1402 17.9784 12.8173 17.1908L6.12744 13.2077C4.80455 12.4201 4.83038 10.4958 6.17392 9.74396L12.9683 5.94186Z" fill="white"/>
<path d="M17.8353 28.5984C17.8353 27.0588 19.502 26.0965 20.8353 26.8663L27.578 30.7592C28.9114 31.529 28.9114 33.4535 27.578 34.2233L20.8353 38.1163C19.502 38.8861 17.8353 37.9238 17.8353 36.3842L17.8353 28.5984Z" fill="white"/>
<path d="M51.5395 31.312C50.2915 31.312 49.1648 31.026 48.1595 30.454C47.1715 29.8647 46.3915 29.0587 45.8195 28.036C45.2648 26.996 44.9875 25.8087 44.9875 24.474C44.9875 23.1047 45.2735 21.9087 45.8455 20.886C46.4175 19.846 47.1975 19.04 48.1855 18.468C49.1908 17.8787 50.3175 17.584 51.5655 17.584C52.8135 17.584 53.9315 17.8787 54.9195 18.468C55.9248 19.04 56.7048 19.8373 57.2595 20.86C57.8315 21.8827 58.1175 23.0787 58.1175 24.448C58.1175 25.8173 57.8315 27.0133 57.2595 28.036C56.6875 29.0587 55.8988 29.8647 54.8935 30.454C53.9055 31.026 52.7875 31.312 51.5395 31.312ZM51.5395 28.634C52.1635 28.634 52.7268 28.478 53.2295 28.166C53.7495 27.854 54.1655 27.386 54.4775 26.762C54.7895 26.138 54.9455 25.3667 54.9455 24.448C54.9455 23.5293 54.7895 22.7667 54.4775 22.16C54.1828 21.536 53.7755 21.068 53.2555 20.756C52.7528 20.444 52.1895 20.288 51.5655 20.288C50.9588 20.288 50.3955 20.444 49.8755 20.756C49.3555 21.068 48.9395 21.536 48.6275 22.16C48.3155 22.7667 48.1595 23.5293 48.1595 24.448C48.1595 25.3667 48.3155 26.138 48.6275 26.762C48.9395 27.386 49.3468 27.854 49.8495 28.166C50.3695 28.478 50.9328 28.634 51.5395 28.634ZM67.2817 31.312C66.0337 31.312 64.907 31.026 63.9017 30.454C62.9137 29.8647 62.1337 29.0587 61.5617 28.036C61.007 26.996 60.7297 25.8087 60.7297 24.474C60.7297 23.1047 61.0157 21.9087 61.5877 20.886C62.1597 19.846 62.9397 19.04 63.9277 18.468C64.933 17.8787 66.0597 17.584 67.3077 17.584C68.5557 17.584 69.6737 17.8787 70.6617 18.468C71.667 19.04 72.447 19.8373 73.0017 20.86C73.5737 21.8827 73.8597 23.0787 73.8597 24.448C73.8597 25.8173 73.5737 27.0133 73.0017 28.036C72.4297 29.0587 71.641 29.8647 70.6357 30.454C69.6477 31.026 68.5297 31.312 67.2817 31.312ZM67.2817 28.634C67.9057 28.634 68.469 28.478 68.9717 28.166C69.4917 27.854 69.9077 27.386 70.2197 26.762C70.5317 26.138 70.6877 25.3667 70.6877 24.448C70.6877 23.5293 70.5317 22.7667 70.2197 22.16C69.925 21.536 69.5177 21.068 68.9977 20.756C68.495 20.444 67.9317 20.288 67.3077 20.288C66.701 20.288 66.1377 20.444 65.6177 20.756C65.0977 21.068 64.6817 21.536 64.3697 22.16C64.0577 22.7667 63.9017 23.5293 63.9017 24.448C63.9017 25.3667 64.0577 26.138 64.3697 26.762C64.6817 27.386 65.089 27.854 65.5917 28.166C66.1117 28.478 66.675 28.634 67.2817 28.634ZM77.0439 31V17.896H80.1639V31H77.0439ZM78.6039 15.816C78.0319 15.816 77.5552 15.6427 77.1739 15.296C76.8099 14.932 76.6279 14.49 76.6279 13.97C76.6279 13.4327 76.8099 12.9993 77.1739 12.67C77.5552 12.3233 78.0319 12.15 78.6039 12.15C79.1759 12.15 79.6439 12.3233 80.0079 12.67C80.3892 12.9993 80.5799 13.4327 80.5799 13.97C80.5799 14.49 80.3892 14.932 80.0079 15.296C79.6439 15.6427 79.1759 15.816 78.6039 15.816ZM89.5933 31.312C88.38 31.312 87.2967 31.0173 86.3433 30.428C85.39 29.8387 84.6447 29.024 84.1073 27.984C83.5873 26.944 83.3273 25.7653 83.3273 24.448C83.3273 23.1307 83.596 21.9607 84.1333 20.938C84.6707 19.898 85.416 19.0833 86.3693 18.494C87.34 17.8873 88.432 17.584 89.6453 17.584C90.6333 17.584 91.4913 17.7747 92.2193 18.156C92.9647 18.52 93.554 19.04 93.9873 19.716V12.28H97.1073V31H94.2993L93.9873 29.102C93.71 29.4833 93.372 29.8473 92.9733 30.194C92.5747 30.5233 92.098 30.792 91.5433 31C90.9887 31.208 90.3387 31.312 89.5933 31.312ZM90.2433 28.608C90.9887 28.608 91.6473 28.4347 92.2193 28.088C92.7913 27.724 93.2333 27.23 93.5453 26.606C93.8573 25.982 94.0133 25.2627 94.0133 24.448C94.0133 23.6333 93.8573 22.914 93.5453 22.29C93.2333 21.666 92.7913 21.1807 92.2193 20.834C91.6473 20.4873 90.9887 20.314 90.2433 20.314C89.5327 20.314 88.8913 20.4873 88.3193 20.834C87.7473 21.1807 87.2967 21.666 86.9673 22.29C86.6553 22.914 86.4993 23.6333 86.4993 24.448C86.4993 25.2627 86.6553 25.982 86.9673 26.606C87.2967 27.23 87.7473 27.724 88.3193 28.088C88.8913 28.4347 89.5327 28.608 90.2433 28.608ZM106.688 31.312C105.44 31.312 104.313 31.026 103.308 30.454C102.32 29.8647 101.54 29.0587 100.968 28.036C100.413 26.996 100.136 25.8087 100.136 24.474C100.136 23.1047 100.422 21.9087 100.994 20.886C101.566 19.846 102.346 19.04 103.334 18.468C104.339 17.8787 105.466 17.584 106.714 17.584C107.962 17.584 109.08 17.8787 110.068 18.468C111.073 19.04 111.853 19.8373 112.408 20.86C112.98 21.8827 113.266 23.0787 113.266 24.448C113.266 25.8173 112.98 27.0133 112.408 28.036C111.836 29.0587 111.047 29.8647 110.042 30.454C109.054 31.026 107.936 31.312 106.688 31.312ZM106.688 28.634C107.312 28.634 107.875 28.478 108.378 28.166C108.898 27.854 109.314 27.386 109.626 26.762C109.938 26.138 110.094 25.3667 110.094 24.448C110.094 23.5293 109.938 22.7667 109.626 22.16C109.331 21.536 108.924 21.068 108.404 20.756C107.901 20.444 107.338 20.288 106.714 20.288C106.107 20.288 105.544 20.444 105.024 20.756C104.504 21.068 104.088 21.536 103.776 22.16C103.464 22.7667 103.308 23.5293 103.308 24.448C103.308 25.3667 103.464 26.138 103.776 26.762C104.088 27.386 104.495 27.854 104.998 28.166C105.518 28.478 106.081 28.634 106.688 28.634Z" fill="white"/>
</svg>
